<svg width="93" height="91" viewBox="0 0 93 91" fill="none" xmlns="http://www.w3.org/2000/svg">
<g opacity="0.3">
<circle opacity="0.2" cx="57.5038" cy="35.4962" r="35.4962" fill="#6A4ADD"/>
<path d="M1.77481 16.3282L3.31184 18.9905H0.237779L1.77481 16.3282Z" fill="url(#paint0_linear_116_4707)"/>
<path d="M15.9733 16.3284L17.5103 18.9906H14.4363L15.9733 16.3284Z" fill="url(#paint1_linear_116_4707)"/>
<path d="M1.77481 22.7177L3.31184 25.3799H0.237779L1.77481 22.7177Z" fill="url(#paint2_linear_116_4707)"/>
<path d="M15.9733 22.7177L17.5103 25.3799H14.4363L15.9733 22.7177Z" fill="url(#paint3_linear_116_4707)"/>
<path d="M1.77481 29.107L3.31184 31.7692H0.237779L1.77481 29.107Z" fill="url(#paint4_linear_116_4707)"/>
<path d="M15.9733 29.1069L17.5103 31.7691H14.4363L15.9733 29.1069Z" fill="url(#paint5_linear_116_4707)"/>
<path d="M1.77481 35.4963L3.31184 38.1585H0.237779L1.77481 35.4963Z" fill="url(#paint6_linear_116_4707)"/>
<path d="M15.9733 35.4964L17.5103 38.1586H14.4363L15.9733 35.4964Z" fill="url(#paint7_linear_116_4707)"/>
<path d="M1.77481 41.8856L3.31184 44.5478H0.237779L1.77481 41.8856Z" fill="url(#paint8_linear_116_4707)"/>
<path d="M15.9733 41.8856L17.5103 44.5478H14.4363L15.9733 41.8856Z" fill="url(#paint9_linear_116_4707)"/>
<path d="M1.77481 48.2749L3.31184 50.9371H0.237779L1.77481 48.2749Z" fill="url(#paint10_linear_116_4707)"/>
<path d="M15.9733 48.2748L17.5103 50.9371H14.4363L15.9733 48.2748Z" fill="url(#paint11_linear_116_4707)"/>
<path d="M8.87404 16.3284L10.4111 18.9906H7.33701L8.87404 16.3284Z" fill="url(#paint12_linear_116_4707)"/>
<path d="M23.0725 16.3285L24.6095 18.9907H21.5355L23.0725 16.3285Z" fill="url(#paint13_linear_116_4707)"/>
<path d="M8.87404 22.7177L10.4111 25.3799H7.33701L8.87404 22.7177Z" fill="url(#paint14_linear_116_4707)"/>
<path d="M23.0725 22.7177L24.6095 25.3799H21.5355L23.0725 22.7177Z" fill="url(#paint15_linear_116_4707)"/>
<path d="M8.87404 29.107L10.4111 31.7692H7.33701L8.87404 29.107Z" fill="url(#paint16_linear_116_4707)"/>
<path d="M23.0725 29.1069L24.6095 31.7691H21.5355L23.0725 29.1069Z" fill="url(#paint17_linear_116_4707)"/>
<path d="M8.87404 35.4963L10.4111 38.1585H7.33701L8.87404 35.4963Z" fill="url(#paint18_linear_116_4707)"/>
<path d="M23.0725 35.4964L24.6095 38.1586H21.5355L23.0725 35.4964Z" fill="url(#paint19_linear_116_4707)"/>
<path d="M8.87404 41.8856L10.4111 44.5478H7.33701L8.87404 41.8856Z" fill="url(#paint20_linear_116_4707)"/>
<path d="M23.0725 41.8856L24.6095 44.5478H21.5355L23.0725 41.8856Z" fill="url(#paint21_linear_116_4707)"/>
<path d="M8.87404 48.2749L10.4111 50.9371H7.33701L8.87404 48.2749Z" fill="url(#paint22_linear_116_4707)"/>
<path d="M23.0725 48.2748L24.6095 50.9371H21.5355L23.0725 48.2748Z" fill="url(#paint23_linear_116_4707)"/>
<path d="M30.1718 16.3284L31.7088 18.9906H28.6347L30.1718 16.3284Z" fill="url(#paint24_linear_116_4707)"/>
<path d="M44.3702 16.3285L45.9073 18.9907H42.8332L44.3702 16.3285Z" fill="url(#paint25_linear_116_4707)"/>
<path d="M30.1718 22.7178L31.7088 25.38H28.6347L30.1718 22.7178Z" fill="url(#paint26_linear_116_4707)"/>
<path d="M44.3702 22.7178L45.9073 25.38H42.8332L44.3702 22.7178Z" fill="url(#paint27_linear_116_4707)"/>
<path d="M30.1718 29.1071L31.7088 31.7693H28.6347L30.1718 29.1071Z" fill="url(#paint28_linear_116_4707)"/>
<path d="M44.3702 29.1071L45.9073 31.7693H42.8332L44.3702 29.1071Z" fill="url(#paint29_linear_116_4707)"/>
<path d="M30.1718 35.4964L31.7088 38.1586H28.6347L30.1718 35.4964Z" fill="url(#paint30_linear_116_4707)"/>
<path d="M44.3702 35.4965L45.9073 38.1587H42.8332L44.3702 35.4965Z" fill="url(#paint31_linear_116_4707)"/>
<path d="M30.1718 41.8857L31.7088 44.548H28.6347L30.1718 41.8857Z" fill="url(#paint32_linear_116_4707)"/>
<path d="M44.3702 41.8857L45.9073 44.548H42.8332L44.3702 41.8857Z" fill="url(#paint33_linear_116_4707)"/>
<path d="M30.1718 48.2751L31.7088 50.9373H28.6347L30.1718 48.2751Z" fill="url(#paint34_linear_116_4707)"/>
<path d="M44.3702 48.275L45.9073 50.9372H42.8332L44.3702 48.275Z" fill="url(#paint35_linear_116_4707)"/>
<path d="M37.271 16.3285L38.808 18.9907H35.734L37.271 16.3285Z" fill="url(#paint36_linear_116_4707)"/>
<path d="M51.4695 16.3286L53.0065 18.9908H49.9324L51.4695 16.3286Z" fill="url(#paint37_linear_116_4707)"/>
<path d="M37.271 22.7178L38.808 25.38H35.734L37.271 22.7178Z" fill="url(#paint38_linear_116_4707)"/>
<path d="M51.4695 22.7178L53.0065 25.38H49.9324L51.4695 22.7178Z" fill="url(#paint39_linear_116_4707)"/>
<path d="M37.271 29.1071L38.808 31.7693H35.734L37.271 29.1071Z" fill="url(#paint40_linear_116_4707)"/>
<path d="M51.4695 29.1071L53.0065 31.7693H49.9324L51.4695 29.1071Z" fill="url(#paint41_linear_116_4707)"/>
<path d="M37.271 35.4964L38.808 38.1586H35.734L37.271 35.4964Z" fill="url(#paint42_linear_116_4707)"/>
<path d="M51.4695 35.4965L53.0065 38.1587H49.9324L51.4695 35.4965Z" fill="url(#paint43_linear_116_4707)"/>
<path d="M37.271 41.8857L38.808 44.548H35.734L37.271 41.8857Z" fill="url(#paint44_linear_116_4707)"/>
<path d="M51.4695 41.8857L53.0065 44.548H49.9324L51.4695 41.8857Z" fill="url(#paint45_linear_116_4707)"/>
<path d="M37.271 48.2751L38.808 50.9373H35.734L37.271 48.2751Z" fill="url(#paint46_linear_116_4707)"/>
<path d="M51.4695 48.275L53.0065 50.9372H49.9324L51.4695 48.275Z" fill="url(#paint47_linear_116_4707)"/>
<path d="M1.77481 55.3742L3.31184 58.0364H0.237779L1.77481 55.3742Z" fill="url(#paint48_linear_116_4707)"/>
<path d="M15.9733 55.3742L17.5103 58.0364H14.4363L15.9733 55.3742Z" fill="url(#paint49_linear_116_4707)"/>
<path d="M1.77481 61.7635L3.31184 64.4257H0.237779L1.77481 61.7635Z" fill="url(#paint50_linear_116_4707)"/>
<path d="M15.9733 61.7635L17.5103 64.4257H14.4363L15.9733 61.7635Z" fill="url(#paint51_linear_116_4707)"/>
<path d="M1.77481 68.1528L3.31184 70.815H0.237779L1.77481 68.1528Z" fill="url(#paint52_linear_116_4707)"/>
<path d="M15.9733 68.1529L17.5103 70.8151H14.4363L15.9733 68.1529Z" fill="url(#paint53_linear_116_4707)"/>
<path d="M1.77481 74.5421L3.31184 77.2044H0.237779L1.77481 74.5421Z" fill="url(#paint54_linear_116_4707)"/>
<path d="M15.9733 74.5421L17.5103 77.2044H14.4363L15.9733 74.5421Z" fill="url(#paint55_linear_116_4707)"/>
<path d="M1.77481 80.9315L3.31184 83.5937H0.237779L1.77481 80.9315Z" fill="url(#paint56_linear_116_4707)"/>
<path d="M15.9733 80.9314L17.5103 83.5936H14.4363L15.9733 80.9314Z" fill="url(#paint57_linear_116_4707)"/>
<path d="M1.77481 87.3208L3.31184 89.983H0.237779L1.77481 87.3208Z" fill="url(#paint58_linear_116_4707)"/>
<path d="M15.9733 87.3208L17.5103 89.983H14.4363L15.9733 87.3208Z" fill="url(#paint59_linear_116_4707)"/>
<path d="M8.87404 55.3742L10.4111 58.0364H7.33701L8.87404 55.3742Z" fill="url(#paint60_linear_116_4707)"/>
<path d="M23.0725 55.3742L24.6095 58.0365H21.5355L23.0725 55.3742Z" fill="url(#paint61_linear_116_4707)"/>
<path d="M8.87404 61.7635L10.4111 64.4257H7.33701L8.87404 61.7635Z" fill="url(#paint62_linear_116_4707)"/>
<path d="M23.0725 61.7635L24.6095 64.4257H21.5355L23.0725 61.7635Z" fill="url(#paint63_linear_116_4707)"/>
<path d="M8.87404 68.1528L10.4111 70.815H7.33701L8.87404 68.1528Z" fill="url(#paint64_linear_116_4707)"/>
<path d="M23.0725 68.1529L24.6095 70.8151H21.5355L23.0725 68.1529Z" fill="url(#paint65_linear_116_4707)"/>
<path d="M8.87404 74.5421L10.4111 77.2044H7.33701L8.87404 74.5421Z" fill="url(#paint66_linear_116_4707)"/>
<path d="M23.0725 74.5421L24.6095 77.2044H21.5355L23.0725 74.5421Z" fill="url(#paint67_linear_116_4707)"/>
<path d="M8.87404 80.9315L10.4111 83.5937H7.33701L8.87404 80.9315Z" fill="url(#paint68_linear_116_4707)"/>
<path d="M23.0725 80.9314L24.6095 83.5936H21.5355L23.0725 80.9314Z" fill="url(#paint69_linear_116_4707)"/>
<path d="M8.87404 87.3208L10.4111 89.983H7.33701L8.87404 87.3208Z" fill="url(#paint70_linear_116_4707)"/>
<path d="M23.0725 87.3208L24.6095 89.983H21.5355L23.0725 87.3208Z" fill="url(#paint71_linear_116_4707)"/>
<path d="M30.1718 55.3742L31.7088 58.0364H28.6347L30.1718 55.3742Z" fill="url(#paint72_linear_116_4707)"/>
<path d="M44.3702 55.3742L45.9073 58.0365H42.8332L44.3702 55.3742Z" fill="url(#paint73_linear_116_4707)"/>
<path d="M30.1718 61.7635L31.7088 64.4258H28.6347L30.1718 61.7635Z" fill="url(#paint74_linear_116_4707)"/>
<path d="M44.3702 61.7635L45.9073 64.4257H42.8332L44.3702 61.7635Z" fill="url(#paint75_linear_116_4707)"/>
<path d="M30.1718 68.1529L31.7088 70.8151H28.6347L30.1718 68.1529Z" fill="url(#paint76_linear_116_4707)"/>
<path d="M44.3702 68.153L45.9073 70.8152H42.8332L44.3702 68.153Z" fill="url(#paint77_linear_116_4707)"/>
<path d="M30.1718 74.5422L31.7088 77.2044H28.6347L30.1718 74.5422Z" fill="url(#paint78_linear_116_4707)"/>
<path d="M44.3702 74.5422L45.9073 77.2044H42.8332L44.3702 74.5422Z" fill="url(#paint79_linear_116_4707)"/>
<path d="M30.1718 80.9315L31.7088 83.5937H28.6347L30.1718 80.9315Z" fill="url(#paint80_linear_116_4707)"/>
<path d="M44.3702 80.9314L45.9073 83.5936H42.8332L44.3702 80.9314Z" fill="url(#paint81_linear_116_4707)"/>
<path d="M30.1718 87.3208L31.7088 89.983H28.6347L30.1718 87.3208Z" fill="url(#paint82_linear_116_4707)"/>
<path d="M44.3702 87.3209L45.9073 89.9831H42.8332L44.3702 87.3209Z" fill="url(#paint83_linear_116_4707)"/>
<path d="M37.271 55.3742L38.808 58.0365H35.734L37.271 55.3742Z" fill="url(#paint84_linear_116_4707)"/>
<path d="M51.4695 55.3743L53.0065 58.0365H49.9324L51.4695 55.3743Z" fill="url(#paint85_linear_116_4707)"/>
<path d="M37.271 61.7635L38.808 64.4258H35.734L37.271 61.7635Z" fill="url(#paint86_linear_116_4707)"/>
<path d="M51.4695 61.7635L53.0065 64.4257H49.9324L51.4695 61.7635Z" fill="url(#paint87_linear_116_4707)"/>
<path d="M37.271 68.1529L38.808 70.8151H35.734L37.271 68.1529Z" fill="url(#paint88_linear_116_4707)"/>
<path d="M51.4695 68.153L53.0065 70.8152H49.9324L51.4695 68.153Z" fill="url(#paint89_linear_116_4707)"/>
<path d="M37.271 74.5422L38.808 77.2044H35.734L37.271 74.5422Z" fill="url(#paint90_linear_116_4707)"/>
<path d="M51.4695 74.5422L53.0065 77.2044H49.9324L51.4695 74.5422Z" fill="url(#paint91_linear_116_4707)"/>
<path d="M37.271 80.9315L38.808 83.5937H35.734L37.271 80.9315Z" fill="url(#paint92_linear_116_4707)"/>
<path d="M51.4695 80.9314L53.0065 83.5936H49.9324L51.4695 80.9314Z" fill="url(#paint93_linear_116_4707)"/>
<path d="M37.271 87.3208L38.808 89.983H35.734L37.271 87.3208Z" fill="url(#paint94_linear_116_4707)"/>
<path d="M51.4695 87.3209L53.0065 89.9831H49.9324L51.4695 87.3209Z" fill="url(#paint95_linear_116_4707)"/>
</g>
<defs>
<linearGradient id="paint0_linear_116_4707" x1="0.744275" y1="16.3282" x2="3.30279" y2="16.6299" gradientUnits="userSpaceOnUse">
<stop offset="0.378266" stop-color="#6141DB"/>
<stop offset="1" stop-color="#795ED2"/>
</linearGradient>
<linearGradient id="paint1_linear_116_4707" x1="14.9427" y1="16.3284" x2="17.5013" y2="16.63" gradientUnits="userSpaceOnUse">
<stop offset="0.378266" stop-color="#6141DB"/>
<stop offset="1" stop-color="#795ED2"/>
</linearGradient>
<linearGradient id="paint2_linear_116_4707" x1="0.744275" y1="22.7177" x2="3.30279" y2="23.0193" gradientUnits="userSpaceOnUse">
<stop offset="0.378266" stop-color="#6141DB"/>
<stop offset="1" stop-color="#795ED2"/>
</linearGradient>
<linearGradient id="paint3_linear_116_4707" x1="14.9427" y1="22.7177" x2="17.5013" y2="23.0194" gradientUnits="userSpaceOnUse">
<stop offset="0.378266" stop-color="#6141DB"/>
<stop offset="1" stop-color="#795ED2"/>
</linearGradient>
<linearGradient id="paint4_linear_116_4707" x1="0.744275" y1="29.107" x2="3.30279" y2="29.4086" gradientUnits="userSpaceOnUse">
<stop offset="0.378266" stop-color="#6141DB"/>
<stop offset="1" stop-color="#795ED2"/>
</linearGradient>
<linearGradient id="paint5_linear_116_4707" x1="14.9427" y1="29.1069" x2="17.5013" y2="29.4086" gradientUnits="userSpaceOnUse">
<stop offset="0.378266" stop-color="#6141DB"/>
<stop offset="1" stop-color="#795ED2"/>
</linearGradient>
<linearGradient id="paint6_linear_116_4707" x1="0.744275" y1="35.4963" x2="3.30279" y2="35.798" gradientUnits="userSpaceOnUse">
<stop offset="0.378266" stop-color="#6141DB"/>
<stop offset="1" stop-color="#795ED2"/>
</linearGradient>
<linearGradient id="paint7_linear_116_4707" x1="14.9427" y1="35.4964" x2="17.5013" y2="35.7981" gradientUnits="userSpaceOnUse">
<stop offset="0.378266" stop-color="#6141DB"/>
<stop offset="1" stop-color="#795ED2"/>
</linearGradient>
<linearGradient id="paint8_linear_116_4707" x1="0.744275" y1="41.8856" x2="3.30279" y2="42.1873" gradientUnits="userSpaceOnUse">
<stop offset="0.378266" stop-color="#6141DB"/>
<stop offset="1" stop-color="#795ED2"/>
</linearGradient>
<linearGradient id="paint9_linear_116_4707" x1="14.9427" y1="41.8856" x2="17.5013" y2="42.1873" gradientUnits="userSpaceOnUse">
<stop offset="0.378266" stop-color="#6141DB"/>
<stop offset="1" stop-color="#795ED2"/>
</linearGradient>
<linearGradient id="paint10_linear_116_4707" x1="0.744275" y1="48.2749" x2="3.30279" y2="48.5766" gradientUnits="userSpaceOnUse">
<stop offset="0.378266" stop-color="#6141DB"/>
<stop offset="1" stop-color="#795ED2"/>
</linearGradient>
<linearGradient id="paint11_linear_116_4707" x1="14.9427" y1="48.2748" x2="17.5013" y2="48.5765" gradientUnits="userSpaceOnUse">
<stop offset="0.378266" stop-color="#6141DB"/>
<stop offset="1" stop-color="#795ED2"/>
</linearGradient>
<linearGradient id="paint12_linear_116_4707" x1="7.84351" y1="16.3284" x2="10.402" y2="16.63" gradientUnits="userSpaceOnUse">
<stop offset="0.378266" stop-color="#6141DB"/>
<stop offset="1" stop-color="#795ED2"/>
</linearGradient>
<linearGradient id="paint13_linear_116_4707" x1="22.042" y1="16.3285" x2="24.6005" y2="16.6301" gradientUnits="userSpaceOnUse">
<stop offset="0.378266" stop-color="#6141DB"/>
<stop offset="1" stop-color="#795ED2"/>
</linearGradient>
<linearGradient id="paint14_linear_116_4707" x1="7.84351" y1="22.7177" x2="10.402" y2="23.0193" gradientUnits="userSpaceOnUse">
<stop offset="0.378266" stop-color="#6141DB"/>
<stop offset="1" stop-color="#795ED2"/>
</linearGradient>
<linearGradient id="paint15_linear_116_4707" x1="22.042" y1="22.7177" x2="24.6005" y2="23.0194" gradientUnits="userSpaceOnUse">
<stop offset="0.378266" stop-color="#6141DB"/>
<stop offset="1" stop-color="#795ED2"/>
</linearGradient>
<linearGradient id="paint16_linear_116_4707" x1="7.84351" y1="29.107" x2="10.402" y2="29.4086" gradientUnits="userSpaceOnUse">
<stop offset="0.378266" stop-color="#6141DB"/>
<stop offset="1" stop-color="#795ED2"/>
</linearGradient>
<linearGradient id="paint17_linear_116_4707" x1="22.042" y1="29.1069" x2="24.6005" y2="29.4086" gradientUnits="userSpaceOnUse">
<stop offset="0.378266" stop-color="#6141DB"/>
<stop offset="1" stop-color="#795ED2"/>
</linearGradient>
<linearGradient id="paint18_linear_116_4707" x1="7.84351" y1="35.4963" x2="10.402" y2="35.798" gradientUnits="userSpaceOnUse">
<stop offset="0.378266" stop-color="#6141DB"/>
<stop offset="1" stop-color="#795ED2"/>
</linearGradient>
<linearGradient id="paint19_linear_116_4707" x1="22.042" y1="35.4964" x2="24.6005" y2="35.7981" gradientUnits="userSpaceOnUse">
<stop offset="0.378266" stop-color="#6141DB"/>
<stop offset="1" stop-color="#795ED2"/>
</linearGradient>
<linearGradient id="paint20_linear_116_4707" x1="7.84351" y1="41.8856" x2="10.402" y2="42.1873" gradientUnits="userSpaceOnUse">
<stop offset="0.378266" stop-color="#6141DB"/>
<stop offset="1" stop-color="#795ED2"/>
</linearGradient>
<linearGradient id="paint21_linear_116_4707" x1="22.042" y1="41.8856" x2="24.6005" y2="42.1873" gradientUnits="userSpaceOnUse">
<stop offset="0.378266" stop-color="#6141DB"/>
<stop offset="1" stop-color="#795ED2"/>
</linearGradient>
<linearGradient id="paint22_linear_116_4707" x1="7.84351" y1="48.2749" x2="10.402" y2="48.5766" gradientUnits="userSpaceOnUse">
<stop offset="0.378266" stop-color="#6141DB"/>
<stop offset="1" stop-color="#795ED2"/>
</linearGradient>
<linearGradient id="paint23_linear_116_4707" x1="22.042" y1="48.2748" x2="24.6005" y2="48.5765" gradientUnits="userSpaceOnUse">
<stop offset="0.378266" stop-color="#6141DB"/>
<stop offset="1" stop-color="#795ED2"/>
</linearGradient>
<linearGradient id="paint24_linear_116_4707" x1="29.1412" y1="16.3284" x2="31.6997" y2="16.63" gradientUnits="userSpaceOnUse">
<stop offset="0.378266" stop-color="#6141DB"/>
<stop offset="1" stop-color="#795ED2"/>
</linearGradient>
<linearGradient id="paint25_linear_116_4707" x1="43.3397" y1="16.3285" x2="45.8982" y2="16.6301" gradientUnits="userSpaceOnUse">
<stop offset="0.378266" stop-color="#6141DB"/>
<stop offset="1" stop-color="#795ED2"/>
</linearGradient>
<linearGradient id="paint26_linear_116_4707" x1="29.1412" y1="22.7178" x2="31.6997" y2="23.0195" gradientUnits="userSpaceOnUse">
<stop offset="0.378266" stop-color="#6141DB"/>
<stop offset="1" stop-color="#795ED2"/>
</linearGradient>
<linearGradient id="paint27_linear_116_4707" x1="43.3397" y1="22.7178" x2="45.8982" y2="23.0195" gradientUnits="userSpaceOnUse">
<stop offset="0.378266" stop-color="#6141DB"/>
<stop offset="1" stop-color="#795ED2"/>
</linearGradient>
<linearGradient id="paint28_linear_116_4707" x1="29.1412" y1="29.1071" x2="31.6997" y2="29.4088" gradientUnits="userSpaceOnUse">
<stop offset="0.378266" stop-color="#6141DB"/>
<stop offset="1" stop-color="#795ED2"/>
</linearGradient>
<linearGradient id="paint29_linear_116_4707" x1="43.3397" y1="29.1071" x2="45.8982" y2="29.4087" gradientUnits="userSpaceOnUse">
<stop offset="0.378266" stop-color="#6141DB"/>
<stop offset="1" stop-color="#795ED2"/>
</linearGradient>
<linearGradient id="paint30_linear_116_4707" x1="29.1412" y1="35.4964" x2="31.6997" y2="35.7981" gradientUnits="userSpaceOnUse">
<stop offset="0.378266" stop-color="#6141DB"/>
<stop offset="1" stop-color="#795ED2"/>
</linearGradient>
<linearGradient id="paint31_linear_116_4707" x1="43.3397" y1="35.4965" x2="45.8982" y2="35.7982" gradientUnits="userSpaceOnUse">
<stop offset="0.378266" stop-color="#6141DB"/>
<stop offset="1" stop-color="#795ED2"/>
</linearGradient>
<linearGradient id="paint32_linear_116_4707" x1="29.1412" y1="41.8857" x2="31.6997" y2="42.1874" gradientUnits="userSpaceOnUse">
<stop offset="0.378266" stop-color="#6141DB"/>
<stop offset="1" stop-color="#795ED2"/>
</linearGradient>
<linearGradient id="paint33_linear_116_4707" x1="43.3397" y1="41.8857" x2="45.8982" y2="42.1874" gradientUnits="userSpaceOnUse">
<stop offset="0.378266" stop-color="#6141DB"/>
<stop offset="1" stop-color="#795ED2"/>
</linearGradient>
<linearGradient id="paint34_linear_116_4707" x1="29.1412" y1="48.2751" x2="31.6997" y2="48.5767" gradientUnits="userSpaceOnUse">
<stop offset="0.378266" stop-color="#6141DB"/>
<stop offset="1" stop-color="#795ED2"/>
</linearGradient>
<linearGradient id="paint35_linear_116_4707" x1="43.3397" y1="48.275" x2="45.8982" y2="48.5766" gradientUnits="userSpaceOnUse">
<stop offset="0.378266" stop-color="#6141DB"/>
<stop offset="1" stop-color="#795ED2"/>
</linearGradient>
<linearGradient id="paint36_linear_116_4707" x1="36.2405" y1="16.3285" x2="38.799" y2="16.6301" gradientUnits="userSpaceOnUse">
<stop offset="0.378266" stop-color="#6141DB"/>
<stop offset="1" stop-color="#795ED2"/>
</linearGradient>
<linearGradient id="paint37_linear_116_4707" x1="50.4389" y1="16.3286" x2="52.9974" y2="16.6303" gradientUnits="userSpaceOnUse">
<stop offset="0.378266" stop-color="#6141DB"/>
<stop offset="1" stop-color="#795ED2"/>
</linearGradient>
<linearGradient id="paint38_linear_116_4707" x1="36.2405" y1="22.7178" x2="38.799" y2="23.0195" gradientUnits="userSpaceOnUse">
<stop offset="0.378266" stop-color="#6141DB"/>
<stop offset="1" stop-color="#795ED2"/>
</linearGradient>
<linearGradient id="paint39_linear_116_4707" x1="50.4389" y1="22.7178" x2="52.9974" y2="23.0195" gradientUnits="userSpaceOnUse">
<stop offset="0.378266" stop-color="#6141DB"/>
<stop offset="1" stop-color="#795ED2"/>
</linearGradient>
<linearGradient id="paint40_linear_116_4707" x1="36.2405" y1="29.1071" x2="38.799" y2="29.4088" gradientUnits="userSpaceOnUse">
<stop offset="0.378266" stop-color="#6141DB"/>
<stop offset="1" stop-color="#795ED2"/>
</linearGradient>
<linearGradient id="paint41_linear_116_4707" x1="50.4389" y1="29.1071" x2="52.9974" y2="29.4087" gradientUnits="userSpaceOnUse">
<stop offset="0.378266" stop-color="#6141DB"/>
<stop offset="1" stop-color="#795ED2"/>
</linearGradient>
<linearGradient id="paint42_linear_116_4707" x1="36.2405" y1="35.4964" x2="38.799" y2="35.7981" gradientUnits="userSpaceOnUse">
<stop offset="0.378266" stop-color="#6141DB"/>
<stop offset="1" stop-color="#795ED2"/>
</linearGradient>
<linearGradient id="paint43_linear_116_4707" x1="50.4389" y1="35.4965" x2="52.9974" y2="35.7982" gradientUnits="userSpaceOnUse">
<stop offset="0.378266" stop-color="#6141DB"/>
<stop offset="1" stop-color="#795ED2"/>
</linearGradient>
<linearGradient id="paint44_linear_116_4707" x1="36.2405" y1="41.8857" x2="38.799" y2="42.1874" gradientUnits="userSpaceOnUse">
<stop offset="0.378266" stop-color="#6141DB"/>
<stop offset="1" stop-color="#795ED2"/>
</linearGradient>
<linearGradient id="paint45_linear_116_4707" x1="50.4389" y1="41.8857" x2="52.9974" y2="42.1874" gradientUnits="userSpaceOnUse">
<stop offset="0.378266" stop-color="#6141DB"/>
<stop offset="1" stop-color="#795ED2"/>
</linearGradient>
<linearGradient id="paint46_linear_116_4707" x1="36.2405" y1="48.2751" x2="38.799" y2="48.5767" gradientUnits="userSpaceOnUse">
<stop offset="0.378266" stop-color="#6141DB"/>
<stop offset="1" stop-color="#795ED2"/>
</linearGradient>
<linearGradient id="paint47_linear_116_4707" x1="50.4389" y1="48.275" x2="52.9974" y2="48.5766" gradientUnits="userSpaceOnUse">
<stop offset="0.378266" stop-color="#6141DB"/>
<stop offset="1" stop-color="#795ED2"/>
</linearGradient>
<linearGradient id="paint48_linear_116_4707" x1="0.744275" y1="55.3742" x2="3.30279" y2="55.6758" gradientUnits="userSpaceOnUse">
<stop offset="0.378266" stop-color="#6141DB"/>
<stop offset="1" stop-color="#795ED2"/>
</linearGradient>
<linearGradient id="paint49_linear_116_4707" x1="14.9427" y1="55.3742" x2="17.5013" y2="55.6759" gradientUnits="userSpaceOnUse">
<stop offset="0.378266" stop-color="#6141DB"/>
<stop offset="1" stop-color="#795ED2"/>
</linearGradient>
<linearGradient id="paint50_linear_116_4707" x1="0.744275" y1="61.7635" x2="3.30279" y2="62.0652" gradientUnits="userSpaceOnUse">
<stop offset="0.378266" stop-color="#6141DB"/>
<stop offset="1" stop-color="#795ED2"/>
</linearGradient>
<linearGradient id="paint51_linear_116_4707" x1="14.9427" y1="61.7635" x2="17.5013" y2="62.0651" gradientUnits="userSpaceOnUse">
<stop offset="0.378266" stop-color="#6141DB"/>
<stop offset="1" stop-color="#795ED2"/>
</linearGradient>
<linearGradient id="paint52_linear_116_4707" x1="0.744275" y1="68.1528" x2="3.30279" y2="68.4545" gradientUnits="userSpaceOnUse">
<stop offset="0.378266" stop-color="#6141DB"/>
<stop offset="1" stop-color="#795ED2"/>
</linearGradient>
<linearGradient id="paint53_linear_116_4707" x1="14.9427" y1="68.1529" x2="17.5013" y2="68.4546" gradientUnits="userSpaceOnUse">
<stop offset="0.378266" stop-color="#6141DB"/>
<stop offset="1" stop-color="#795ED2"/>
</linearGradient>
<linearGradient id="paint54_linear_116_4707" x1="0.744275" y1="74.5421" x2="3.30279" y2="74.8438" gradientUnits="userSpaceOnUse">
<stop offset="0.378266" stop-color="#6141DB"/>
<stop offset="1" stop-color="#795ED2"/>
</linearGradient>
<linearGradient id="paint55_linear_116_4707" x1="14.9427" y1="74.5421" x2="17.5013" y2="74.8438" gradientUnits="userSpaceOnUse">
<stop offset="0.378266" stop-color="#6141DB"/>
<stop offset="1" stop-color="#795ED2"/>
</linearGradient>
<linearGradient id="paint56_linear_116_4707" x1="0.744275" y1="80.9315" x2="3.30279" y2="81.2331" gradientUnits="userSpaceOnUse">
<stop offset="0.378266" stop-color="#6141DB"/>
<stop offset="1" stop-color="#795ED2"/>
</linearGradient>
<linearGradient id="paint57_linear_116_4707" x1="14.9427" y1="80.9314" x2="17.5013" y2="81.233" gradientUnits="userSpaceOnUse">
<stop offset="0.378266" stop-color="#6141DB"/>
<stop offset="1" stop-color="#795ED2"/>
</linearGradient>
<linearGradient id="paint58_linear_116_4707" x1="0.744275" y1="87.3208" x2="3.30279" y2="87.6224" gradientUnits="userSpaceOnUse">
<stop offset="0.378266" stop-color="#6141DB"/>
<stop offset="1" stop-color="#795ED2"/>
</linearGradient>
<linearGradient id="paint59_linear_116_4707" x1="14.9427" y1="87.3208" x2="17.5013" y2="87.6225" gradientUnits="userSpaceOnUse">
<stop offset="0.378266" stop-color="#6141DB"/>
<stop offset="1" stop-color="#795ED2"/>
</linearGradient>
<linearGradient id="paint60_linear_116_4707" x1="7.84351" y1="55.3742" x2="10.402" y2="55.6759" gradientUnits="userSpaceOnUse">
<stop offset="0.378266" stop-color="#6141DB"/>
<stop offset="1" stop-color="#795ED2"/>
</linearGradient>
<linearGradient id="paint61_linear_116_4707" x1="22.042" y1="55.3742" x2="24.6005" y2="55.6759" gradientUnits="userSpaceOnUse">
<stop offset="0.378266" stop-color="#6141DB"/>
<stop offset="1" stop-color="#795ED2"/>
</linearGradient>
<linearGradient id="paint62_linear_116_4707" x1="7.84351" y1="61.7635" x2="10.402" y2="62.0652" gradientUnits="userSpaceOnUse">
<stop offset="0.378266" stop-color="#6141DB"/>
<stop offset="1" stop-color="#795ED2"/>
</linearGradient>
<linearGradient id="paint63_linear_116_4707" x1="22.042" y1="61.7635" x2="24.6005" y2="62.0651" gradientUnits="userSpaceOnUse">
<stop offset="0.378266" stop-color="#6141DB"/>
<stop offset="1" stop-color="#795ED2"/>
</linearGradient>
<linearGradient id="paint64_linear_116_4707" x1="7.84351" y1="68.1528" x2="10.402" y2="68.4545" gradientUnits="userSpaceOnUse">
<stop offset="0.378266" stop-color="#6141DB"/>
<stop offset="1" stop-color="#795ED2"/>
</linearGradient>
<linearGradient id="paint65_linear_116_4707" x1="22.042" y1="68.1529" x2="24.6005" y2="68.4546" gradientUnits="userSpaceOnUse">
<stop offset="0.378266" stop-color="#6141DB"/>
<stop offset="1" stop-color="#795ED2"/>
</linearGradient>
<linearGradient id="paint66_linear_116_4707" x1="7.84351" y1="74.5421" x2="10.402" y2="74.8438" gradientUnits="userSpaceOnUse">
<stop offset="0.378266" stop-color="#6141DB"/>
<stop offset="1" stop-color="#795ED2"/>
</linearGradient>
<linearGradient id="paint67_linear_116_4707" x1="22.042" y1="74.5421" x2="24.6005" y2="74.8438" gradientUnits="userSpaceOnUse">
<stop offset="0.378266" stop-color="#6141DB"/>
<stop offset="1" stop-color="#795ED2"/>
</linearGradient>
<linearGradient id="paint68_linear_116_4707" x1="7.84351" y1="80.9315" x2="10.402" y2="81.2331" gradientUnits="userSpaceOnUse">
<stop offset="0.378266" stop-color="#6141DB"/>
<stop offset="1" stop-color="#795ED2"/>
</linearGradient>
<linearGradient id="paint69_linear_116_4707" x1="22.042" y1="80.9314" x2="24.6005" y2="81.233" gradientUnits="userSpaceOnUse">
<stop offset="0.378266" stop-color="#6141DB"/>
<stop offset="1" stop-color="#795ED2"/>
</linearGradient>
<linearGradient id="paint70_linear_116_4707" x1="7.84351" y1="87.3208" x2="10.402" y2="87.6224" gradientUnits="userSpaceOnUse">
<stop offset="0.378266" stop-color="#6141DB"/>
<stop offset="1" stop-color="#795ED2"/>
</linearGradient>
<linearGradient id="paint71_linear_116_4707" x1="22.042" y1="87.3208" x2="24.6005" y2="87.6225" gradientUnits="userSpaceOnUse">
<stop offset="0.378266" stop-color="#6141DB"/>
<stop offset="1" stop-color="#795ED2"/>
</linearGradient>
<linearGradient id="paint72_linear_116_4707" x1="29.1412" y1="55.3742" x2="31.6997" y2="55.6759" gradientUnits="userSpaceOnUse">
<stop offset="0.378266" stop-color="#6141DB"/>
<stop offset="1" stop-color="#795ED2"/>
</linearGradient>
<linearGradient id="paint73_linear_116_4707" x1="43.3397" y1="55.3742" x2="45.8982" y2="55.6759" gradientUnits="userSpaceOnUse">
<stop offset="0.378266" stop-color="#6141DB"/>
<stop offset="1" stop-color="#795ED2"/>
</linearGradient>
<linearGradient id="paint74_linear_116_4707" x1="29.1412" y1="61.7635" x2="31.6997" y2="62.0652" gradientUnits="userSpaceOnUse">
<stop offset="0.378266" stop-color="#6141DB"/>
<stop offset="1" stop-color="#795ED2"/>
</linearGradient>
<linearGradient id="paint75_linear_116_4707" x1="43.3397" y1="61.7635" x2="45.8982" y2="62.0651" gradientUnits="userSpaceOnUse">
<stop offset="0.378266" stop-color="#6141DB"/>
<stop offset="1" stop-color="#795ED2"/>
</linearGradient>
<linearGradient id="paint76_linear_116_4707" x1="29.1412" y1="68.1529" x2="31.6997" y2="68.4545" gradientUnits="userSpaceOnUse">
<stop offset="0.378266" stop-color="#6141DB"/>
<stop offset="1" stop-color="#795ED2"/>
</linearGradient>
<linearGradient id="paint77_linear_116_4707" x1="43.3397" y1="68.153" x2="45.8982" y2="68.4546" gradientUnits="userSpaceOnUse">
<stop offset="0.378266" stop-color="#6141DB"/>
<stop offset="1" stop-color="#795ED2"/>
</linearGradient>
<linearGradient id="paint78_linear_116_4707" x1="29.1412" y1="74.5422" x2="31.6997" y2="74.8438" gradientUnits="userSpaceOnUse">
<stop offset="0.378266" stop-color="#6141DB"/>
<stop offset="1" stop-color="#795ED2"/>
</linearGradient>
<linearGradient id="paint79_linear_116_4707" x1="43.3397" y1="74.5422" x2="45.8982" y2="74.8438" gradientUnits="userSpaceOnUse">
<stop offset="0.378266" stop-color="#6141DB"/>
<stop offset="1" stop-color="#795ED2"/>
</linearGradient>
<linearGradient id="paint80_linear_116_4707" x1="29.1412" y1="80.9315" x2="31.6997" y2="81.2331" gradientUnits="userSpaceOnUse">
<stop offset="0.378266" stop-color="#6141DB"/>
<stop offset="1" stop-color="#795ED2"/>
</linearGradient>
<linearGradient id="paint81_linear_116_4707" x1="43.3397" y1="80.9314" x2="45.8982" y2="81.2331" gradientUnits="userSpaceOnUse">
<stop offset="0.378266" stop-color="#6141DB"/>
<stop offset="1" stop-color="#795ED2"/>
</linearGradient>
<linearGradient id="paint82_linear_116_4707" x1="29.1412" y1="87.3208" x2="31.6997" y2="87.6225" gradientUnits="userSpaceOnUse">
<stop offset="0.378266" stop-color="#6141DB"/>
<stop offset="1" stop-color="#795ED2"/>
</linearGradient>
<linearGradient id="paint83_linear_116_4707" x1="43.3397" y1="87.3209" x2="45.8982" y2="87.6225" gradientUnits="userSpaceOnUse">
<stop offset="0.378266" stop-color="#6141DB"/>
<stop offset="1" stop-color="#795ED2"/>
</linearGradient>
<linearGradient id="paint84_linear_116_4707" x1="36.2405" y1="55.3742" x2="38.799" y2="55.6759" gradientUnits="userSpaceOnUse">
<stop offset="0.378266" stop-color="#6141DB"/>
<stop offset="1" stop-color="#795ED2"/>
</linearGradient>
<linearGradient id="paint85_linear_116_4707" x1="50.4389" y1="55.3743" x2="52.9974" y2="55.6759" gradientUnits="userSpaceOnUse">
<stop offset="0.378266" stop-color="#6141DB"/>
<stop offset="1" stop-color="#795ED2"/>
</linearGradient>
<linearGradient id="paint86_linear_116_4707" x1="36.2405" y1="61.7635" x2="38.799" y2="62.0652" gradientUnits="userSpaceOnUse">
<stop offset="0.378266" stop-color="#6141DB"/>
<stop offset="1" stop-color="#795ED2"/>
</linearGradient>
<linearGradient id="paint87_linear_116_4707" x1="50.4389" y1="61.7635" x2="52.9974" y2="62.0651" gradientUnits="userSpaceOnUse">
<stop offset="0.378266" stop-color="#6141DB"/>
<stop offset="1" stop-color="#795ED2"/>
</linearGradient>
<linearGradient id="paint88_linear_116_4707" x1="36.2405" y1="68.1529" x2="38.799" y2="68.4545" gradientUnits="userSpaceOnUse">
<stop offset="0.378266" stop-color="#6141DB"/>
<stop offset="1" stop-color="#795ED2"/>
</linearGradient>
<linearGradient id="paint89_linear_116_4707" x1="50.4389" y1="68.153" x2="52.9974" y2="68.4546" gradientUnits="userSpaceOnUse">
<stop offset="0.378266" stop-color="#6141DB"/>
<stop offset="1" stop-color="#795ED2"/>
</linearGradient>
<linearGradient id="paint90_linear_116_4707" x1="36.2405" y1="74.5422" x2="38.799" y2="74.8438" gradientUnits="userSpaceOnUse">
<stop offset="0.378266" stop-color="#6141DB"/>
<stop offset="1" stop-color="#795ED2"/>
</linearGradient>
<linearGradient id="paint91_linear_116_4707" x1="50.4389" y1="74.5422" x2="52.9974" y2="74.8438" gradientUnits="userSpaceOnUse">
<stop offset="0.378266" stop-color="#6141DB"/>
<stop offset="1" stop-color="#795ED2"/>
</linearGradient>
<linearGradient id="paint92_linear_116_4707" x1="36.2405" y1="80.9315" x2="38.799" y2="81.2331" gradientUnits="userSpaceOnUse">
<stop offset="0.378266" stop-color="#6141DB"/>
<stop offset="1" stop-color="#795ED2"/>
</linearGradient>
<linearGradient id="paint93_linear_116_4707" x1="50.4389" y1="80.9314" x2="52.9974" y2="81.2331" gradientUnits="userSpaceOnUse">
<stop offset="0.378266" stop-color="#6141DB"/>
<stop offset="1" stop-color="#795ED2"/>
</linearGradient>
<linearGradient id="paint94_linear_116_4707" x1="36.2405" y1="87.3208" x2="38.799" y2="87.6225" gradientUnits="userSpaceOnUse">
<stop offset="0.378266" stop-color="#6141DB"/>
<stop offset="1" stop-color="#795ED2"/>
</linearGradient>
<linearGradient id="paint95_linear_116_4707" x1="50.4389" y1="87.3209" x2="52.9974" y2="87.6225" gradientUnits="userSpaceOnUse">
<stop offset="0.378266" stop-color="#6141DB"/>
<stop offset="1" stop-color="#795ED2"/>
</linearGradient>
</defs>
</svg>
