<svg width="695" height="148" viewBox="0 0 695 148" fill="none" xmlns="http://www.w3.org/2000/svg">
<path d="M9.62793 12.0916C9.10735 11.8159 8.4939 12.1961 8.4939 12.7852C8.4939 21.7788 8.4939 32.0555 8.4939 40.3529C8.4939 50.2336 9.11148 68.8124 11.3584 78.0039C13.6053 87.1953 18.0412 95.7073 24.288 102.814C30.5348 109.921 35.0621 115.55 46.0408 125.431C51.9692 130.767 57.0272 134.849 61.85 135.312C66.5976 135.767 72.6357 132.186 78.6473 128C86.3542 122.634 94.8517 117.329 100.648 112.285C108.487 105.463 114.763 99.4652 119.26 91.14C122.45 83.8282 125.087 77.5045 126.205 63.2762C126.214 62.5511 126.418 62.3854 125.701 62.4934L112.637 64.4619C106.313 65.8452 97.7736 69.0071 94.8517 72.5641C90.5143 77.8445 84.9171 82.9449 82.8974 84.912C82.7185 85.0863 82.5287 85.2439 82.3197 85.3807C78.9912 87.5589 75.1972 88.9283 71.2412 89.3769C67.1607 89.8396 63.0289 89.3089 59.1979 87.83C55.3668 86.351 51.9501 83.9678 49.239 80.8833C46.5278 77.7988 44.6026 74.1046 43.6275 70.1155C42.6523 66.1263 41.6932 60.9049 41.6932 56.7549C41.1004 48.2575 41.2139 46.1379 38.729 39.9577C35.9011 32.9242 32.7646 29.5688 27.4649 24.1484C22.6068 19.1796 12.9293 13.8401 9.62793 12.0916Z" fill="#6141DB"/>
<g opacity="0.7">
<path d="M51.8506 84.5103L58.807 77.8776M17.5206 19.3331L21.8341 23.8706L7.97761 37.4489L8.22192 28.3921L17.5206 19.3331ZM54.4658 47.8951L58.7794 52.4309L32.0585 77.8427L27.7449 73.3069L54.4658 47.8951ZM26.9209 42.2377L31.2344 46.7734L9.05671 65.5247L8.22192 58.2793L26.9209 42.2377ZM40.8669 44.8799L45.1804 49.4174L24.1053 69.46L19.7918 64.9242L40.8669 44.8799ZM20.7018 32.2573L25.0171 36.7932L8.22192 52.4309L8.22192 42.2377L20.7018 32.2573ZM57.2571 61.1455L59.8701 85.9782L35.6865 81.6594L57.2571 61.1455Z" stroke="white" stroke-width="1.18569" stroke-linecap="round" stroke-linejoin="round"/>
</g>
<g filter="url(#filter0_d_472_64)">
<path d="M129.971 61.3046V61.3051C129.971 70.4372 117.596 77.8404 102.331 77.8404C89.1338 77.8404 78.1004 72.3069 75.352 64.9073L74.1535 64.6193V62.5435L73.6167 62.3025C72.3936 61.7538 72.3936 60.8557 73.6167 60.3069L74.1535 60.066V41.6562L90.8037 46.2732C94.3123 45.3086 98.2161 44.77 102.331 44.77C106.7 44.77 110.831 45.3773 114.505 46.4571L129.971 42.74V61.3046Z" fill="#132028"/>
<path d="M77.2375 69.8943L78.1683 80.0258C78.3447 81.9465 76.9307 83.6466 75.0099 83.8231C73.089 83.9996 71.3891 82.5856 71.2126 80.6647C71.1943 80.4521 71.1943 80.2383 71.2126 80.0257L72.1434 69.8942C72.2726 68.4874 73.5177 67.4518 74.9245 67.5812C76.1723 67.6959 77.1278 68.6897 77.2375 69.8943Z" fill="#FFB636"/>
<path d="M97.7778 62.0354L56.9937 39.3992C55.0373 38.3133 55.0373 36.5364 56.9937 35.4504L97.7778 12.8145C99.7343 11.7285 102.936 11.7285 104.892 12.8145L145.677 35.4506C147.633 36.5366 147.633 38.3135 145.677 39.3994L104.893 62.0354C102.936 63.1214 99.7344 63.1214 97.7778 62.0354Z" fill="#464A4C"/>
<path d="M74.6905 71.1096C71.7964 71.1096 69.4501 68.7634 69.4501 65.8691V64.5138C69.4501 61.6197 71.7964 59.2733 74.6905 59.2733C77.5846 59.2733 79.9308 61.6196 79.9308 64.5138V65.8691C79.9308 68.7634 77.5846 71.1096 74.6905 71.1096Z" fill="#27C13F"/>
<path d="M74.6906 66.2399C73.1855 66.2399 71.9655 65.0199 71.9655 63.5149V51.1179C71.9655 50.1495 72.4796 49.2538 73.3158 48.7652L99.9605 33.1957C101.26 32.4365 102.929 32.8744 103.688 34.1739C104.447 35.4731 104.01 37.1422 102.71 37.9014L77.4156 52.6818V63.5151C77.4156 65.0199 76.1954 66.2399 74.6906 66.2399Z" fill="#FFB636"/>
<path d="M107.537 35.5483C107.537 37.9519 104.76 39.9004 101.335 39.9004C97.9104 39.9004 95.1339 37.9519 95.1339 35.5483C95.1339 33.1446 97.9104 31.1961 101.335 31.1961C104.76 31.1961 107.537 33.1446 107.537 35.5483Z" fill="#132028"/>
</g>
<path d="M280.3 1.61656L291.537 34.4999H291.99L303.227 1.61656H309.812L295.283 41.9913H288.245L273.715 1.61656H280.3Z" fill="#828282"/>
<path d="M325.184 42.6024C322.201 42.6024 319.631 41.965 317.476 40.6901C315.334 39.4021 313.678 37.595 312.508 35.2687C311.351 32.9293 310.773 30.189 310.773 27.0479C310.773 23.9462 311.351 21.2125 312.508 18.8468C313.678 16.4811 315.307 14.6345 317.397 13.3071C319.5 11.9797 321.958 11.316 324.77 11.316C326.479 11.316 328.135 11.5985 329.738 12.1637C331.342 12.7288 332.781 13.6159 334.056 14.8251C335.33 16.0342 336.336 17.6048 337.072 19.5368C337.808 21.4556 338.176 23.7885 338.176 26.5353V28.625H314.105V24.2091H332.4C332.4 22.6582 332.084 21.2848 331.453 20.0888C330.822 18.8796 329.935 17.9268 328.792 17.2302C327.662 16.5337 326.334 16.1854 324.81 16.1854C323.154 16.1854 321.708 16.5928 320.472 17.4076C319.25 18.2094 318.304 19.2608 317.634 20.5619C316.977 21.8499 316.648 23.2496 316.648 24.761V28.211C316.648 30.235 317.003 31.9567 317.713 33.3762C318.435 34.7956 319.441 35.8799 320.729 36.629C322.017 37.365 323.522 37.733 325.243 37.733C326.36 37.733 327.379 37.5753 328.299 37.2599C329.219 36.9313 330.014 36.445 330.684 35.801C331.355 35.157 331.867 34.3619 332.222 33.4156L337.801 34.421C337.354 36.0639 336.553 37.503 335.396 38.7384C334.253 39.9607 332.814 40.9136 331.079 41.597C329.357 42.2673 327.392 42.6024 325.184 42.6024Z" fill="#828282"/>
<path d="M350.611 24.0119V41.9913H344.716V11.7102H350.374V16.6388H350.749C351.445 15.0354 352.536 13.7474 354.021 12.7748C355.519 11.8022 357.405 11.316 359.679 11.316C361.743 11.316 363.55 11.7497 365.101 12.6171C366.651 13.4714 367.854 14.7462 368.708 16.4417C369.563 18.1371 369.99 20.2334 369.99 22.7305V41.9913H364.095V23.4402C364.095 21.2453 363.523 19.5302 362.38 18.2948C361.237 17.0462 359.666 16.4219 357.668 16.4219C356.301 16.4219 355.086 16.7177 354.021 17.3091C352.97 17.9005 352.135 18.7679 351.517 19.9114C350.913 21.0416 350.611 22.4085 350.611 24.0119Z" fill="#828282"/>
<path d="M392.03 11.7102V16.4417H375.49V11.7102H392.03ZM379.926 4.45541H385.82V33.1002C385.82 34.2436 385.991 35.1044 386.333 35.6827C386.674 36.2479 387.115 36.6356 387.654 36.8459C388.206 37.043 388.804 37.1416 389.448 37.1416C389.921 37.1416 390.335 37.1087 390.69 37.043C391.044 36.9773 391.32 36.9247 391.518 36.8853L392.582 41.7547C392.24 41.8861 391.754 42.0176 391.123 42.149C390.492 42.2936 389.704 42.3724 388.758 42.3856C387.207 42.4118 385.761 42.1358 384.42 41.5576C383.08 40.9793 381.996 40.0856 381.168 38.8764C380.34 37.6673 379.926 36.1493 379.926 34.3224V4.45541Z" fill="#828282"/>
<path d="M417.733 29.4333V11.7102H423.647V41.9913H417.851V36.7473H417.535C416.839 38.3639 415.722 39.711 414.184 40.7887C412.659 41.8533 410.76 42.3856 408.487 42.3856C406.541 42.3856 404.82 41.9584 403.321 41.1041C401.836 40.2367 400.667 38.9553 399.812 37.2599C398.971 35.5644 398.551 33.4682 398.551 30.971V11.7102H404.445V30.2613C404.445 32.3247 405.017 33.9676 406.16 35.1899C407.304 36.4121 408.789 37.0233 410.616 37.0233C411.72 37.0233 412.817 36.7473 413.908 36.1953C415.012 35.6433 415.925 34.8087 416.648 33.6916C417.384 32.5744 417.746 31.155 417.733 29.4333Z" fill="#828282"/>
<path d="M431.567 41.9913V11.7102H437.264V16.5205H437.58C438.132 14.8908 439.104 13.6094 440.498 12.6762C441.904 11.73 443.494 11.2568 445.268 11.2568C445.636 11.2568 446.07 11.27 446.57 11.2962C447.082 11.3225 447.483 11.3554 447.772 11.3948V17.0331C447.536 16.9674 447.115 16.8951 446.51 16.8162C445.906 16.7242 445.301 16.6782 444.697 16.6782C443.304 16.6782 442.062 16.9739 440.971 17.5654C439.893 18.1436 439.039 18.9519 438.408 19.9902C437.777 21.0153 437.462 22.1851 437.462 23.4993V41.9913H431.567Z" fill="#828282"/>
<path d="M464.84 42.6024C461.856 42.6024 459.287 41.965 457.131 40.6901C454.989 39.4021 453.333 37.595 452.163 35.2687C451.007 32.9293 450.429 30.189 450.429 27.0479C450.429 23.9462 451.007 21.2125 452.163 18.8468C453.333 16.4811 454.963 14.6345 457.053 13.3071C459.155 11.9797 461.613 11.316 464.426 11.316C466.134 11.316 467.79 11.5985 469.394 12.1637C470.997 12.7288 472.436 13.6159 473.711 14.8251C474.986 16.0342 475.991 17.6048 476.727 19.5368C477.463 21.4556 477.831 23.7885 477.831 26.5353V28.625H453.76V24.2091H472.055C472.055 22.6582 471.74 21.2848 471.109 20.0888C470.478 18.8796 469.591 17.9268 468.447 17.2302C467.317 16.5337 465.99 16.1854 464.465 16.1854C462.809 16.1854 461.363 16.5928 460.128 17.4076C458.906 18.2094 457.959 19.2608 457.289 20.5619C456.632 21.8499 456.303 23.2496 456.303 24.761V28.211C456.303 30.235 456.658 31.9567 457.368 33.3762C458.091 34.7956 459.096 35.8799 460.384 36.629C461.672 37.365 463.177 37.733 464.899 37.733C466.016 37.733 467.035 37.5753 467.954 37.2599C468.874 36.9313 469.67 36.445 470.34 35.801C471.01 35.157 471.523 34.3619 471.878 33.4156L477.457 34.421C477.01 36.0639 476.208 37.503 475.052 38.7384C473.908 39.9607 472.469 40.9136 470.734 41.597C469.012 42.2673 467.048 42.6024 464.84 42.6024Z" fill="#828282"/>
<path d="M547.763 14.7462H541.612C541.375 13.4319 540.935 12.2754 540.291 11.2765C539.647 10.2777 538.858 9.42996 537.925 8.73339C536.992 8.03683 535.947 7.51111 534.791 7.15626C533.647 6.8014 532.431 6.62397 531.143 6.62397C528.817 6.62397 526.734 7.20883 524.894 8.37854C523.067 9.54825 521.621 11.2634 520.557 13.5239C519.506 15.7845 518.98 18.5445 518.98 21.8039C518.98 25.0896 519.506 27.8628 520.557 30.1233C521.621 32.3839 523.074 34.0924 524.914 35.249C526.754 36.4056 528.824 36.9839 531.124 36.9839C532.399 36.9839 533.608 36.813 534.751 36.4713C535.908 36.1164 536.953 35.5973 537.886 34.9139C538.819 34.2304 539.607 33.3959 540.251 32.4102C540.909 31.4113 541.362 30.2679 541.612 28.9799L547.763 28.9996C547.434 30.9842 546.797 32.811 545.85 34.4802C544.917 36.1361 543.715 37.5687 542.243 38.7779C540.784 39.9738 539.115 40.9004 537.235 41.5576C535.356 42.2147 533.305 42.5433 531.084 42.5433C527.588 42.5433 524.473 41.7153 521.74 40.0593C519.006 38.3901 516.851 36.0047 515.274 32.903C513.71 29.8013 512.928 26.1016 512.928 21.8039C512.928 17.4931 513.716 13.7934 515.293 10.7048C516.87 7.60311 519.026 5.22427 521.76 3.56827C524.493 1.89914 527.601 1.06457 531.084 1.06457C533.227 1.06457 535.224 1.37342 537.077 1.99114C538.944 2.5957 540.619 3.48941 542.105 4.67227C543.59 5.84198 544.819 7.27454 545.791 8.96996C546.764 10.6522 547.421 12.5777 547.763 14.7462Z" fill="#828282"/>
<path d="M563.391 42.6616C561.472 42.6616 559.737 42.3067 558.186 41.597C556.636 40.8741 555.407 39.8293 554.5 38.4624C553.606 37.0956 553.159 35.4199 553.159 33.4353C553.159 31.7267 553.488 30.3205 554.145 29.2165C554.802 28.1125 555.689 27.2385 556.806 26.5945C557.924 25.9505 559.172 25.4642 560.552 25.1356C561.932 24.807 563.338 24.5573 564.771 24.3865C566.585 24.1762 568.057 24.0053 569.187 23.8739C570.317 23.7293 571.139 23.4993 571.651 23.1839C572.164 22.8685 572.42 22.3559 572.42 21.6462V21.5082C572.42 19.7865 571.934 18.4525 570.961 17.5062C570.002 16.5599 568.569 16.0868 566.664 16.0868C564.679 16.0868 563.115 16.5271 561.972 17.4076C560.841 18.2751 560.059 19.2411 559.626 20.3056L554.086 19.0439C554.743 17.2039 555.702 15.7188 556.964 14.5885C558.239 13.4451 559.704 12.6171 561.36 12.1045C563.016 11.5788 564.758 11.316 566.585 11.316C567.794 11.316 569.075 11.4605 570.429 11.7497C571.796 12.0257 573.071 12.5382 574.254 13.2874C575.45 14.0365 576.429 15.1077 577.191 16.5008C577.953 17.8808 578.334 19.6748 578.334 21.8828V41.9913H572.578V37.8513H572.341C571.96 38.6136 571.388 39.3627 570.626 40.0987C569.864 40.8347 568.885 41.4458 567.689 41.9321C566.493 42.4184 565.06 42.6616 563.391 42.6616ZM564.672 37.9301C566.302 37.9301 567.695 37.6081 568.852 36.9641C570.022 36.3201 570.909 35.479 571.513 34.4407C572.131 33.3893 572.44 32.2656 572.44 31.0696V27.1662C572.23 27.3765 571.822 27.5736 571.218 27.7576C570.626 27.9285 569.949 28.0796 569.187 28.211C568.425 28.3293 567.682 28.441 566.959 28.5462C566.236 28.6382 565.632 28.717 565.146 28.7827C564.002 28.9273 562.957 29.1705 562.011 29.5122C561.078 29.8539 560.329 30.3467 559.764 30.9907C559.212 31.6216 558.936 32.4627 558.936 33.5142C558.936 34.973 559.474 36.077 560.552 36.8261C561.63 37.5621 563.003 37.9301 564.672 37.9301Z" fill="#828282"/>
<path d="M586.186 53.3467V11.7102H591.942V16.6191H592.435C592.777 15.9882 593.27 15.2588 593.914 14.4308C594.558 13.6028 595.451 12.88 596.595 12.2622C597.738 11.6314 599.25 11.316 601.129 11.316C603.573 11.316 605.755 11.9337 607.674 13.1691C609.593 14.4045 611.098 16.1854 612.189 18.5116C613.293 20.8379 613.845 23.6373 613.845 26.9099C613.845 30.1825 613.299 32.9884 612.208 35.3279C611.117 37.6541 609.619 39.4481 607.713 40.7098C605.808 41.9584 603.633 42.5827 601.188 42.5827C599.348 42.5827 597.843 42.2738 596.674 41.6561C595.517 41.0384 594.61 40.3156 593.953 39.4876C593.296 38.6596 592.79 37.9236 592.435 37.2796H592.08V53.3467H586.186ZM591.962 26.8508C591.962 28.9799 592.271 30.8462 592.888 32.4496C593.506 34.053 594.4 35.3082 595.57 36.215C596.739 37.1087 598.172 37.5556 599.867 37.5556C601.628 37.5556 603.1 37.089 604.283 36.1559C605.466 35.2096 606.36 33.9282 606.964 32.3116C607.582 30.695 607.891 28.8747 607.891 26.8508C607.891 24.853 607.589 23.0591 606.984 21.4688C606.393 19.8785 605.499 18.6234 604.303 17.7034C603.12 16.7834 601.641 16.3234 599.867 16.3234C598.159 16.3234 596.713 16.7637 595.53 17.6442C594.36 18.5248 593.473 19.7536 592.869 21.3308C592.264 22.9079 591.962 24.7479 591.962 26.8508Z" fill="#828282"/>
<path d="M620.449 41.9913V11.7102H626.343V41.9913H620.449ZM623.426 7.03797C622.401 7.03797 621.52 6.69626 620.784 6.01283C620.061 5.31626 619.7 4.48827 619.7 3.52884C619.7 2.55628 620.061 1.72828 620.784 1.04485C621.52 0.348284 622.401 0 623.426 0C624.451 0 625.325 0.348284 626.048 1.04485C626.784 1.72828 627.152 2.55628 627.152 3.52884C627.152 4.48827 626.784 5.31626 626.048 6.01283C625.325 6.69626 624.451 7.03797 623.426 7.03797Z" fill="#828282"/>
<path d="M648.409 11.7102V16.4417H631.868V11.7102H648.409ZM636.304 4.45541H642.199V33.1002C642.199 34.2436 642.369 35.1044 642.711 35.6827C643.053 36.2479 643.493 36.6356 644.032 36.8459C644.584 37.043 645.182 37.1416 645.826 37.1416C646.299 37.1416 646.713 37.1087 647.068 37.043C647.423 36.9773 647.699 36.9247 647.896 36.8853L648.961 41.7547C648.619 41.8861 648.133 42.0176 647.502 42.149C646.871 42.2936 646.082 42.3724 645.136 42.3856C643.585 42.4118 642.139 42.1358 640.799 41.5576C639.458 40.9793 638.374 40.0856 637.546 38.8764C636.718 37.6673 636.304 36.1493 636.304 34.3224V4.45541Z" fill="#828282"/>
<path d="M663.741 42.6616C661.822 42.6616 660.088 42.3067 658.537 41.597C656.986 40.8741 655.757 39.8293 654.85 38.4624C653.956 37.0956 653.51 35.4199 653.51 33.4353C653.51 31.7267 653.838 30.3205 654.495 29.2165C655.152 28.1125 656.04 27.2385 657.157 26.5945C658.274 25.9505 659.522 25.4642 660.902 25.1356C662.282 24.807 663.689 24.5573 665.121 24.3865C666.935 24.1762 668.407 24.0053 669.537 23.8739C670.668 23.7293 671.489 23.4993 672.002 23.1839C672.514 22.8685 672.77 22.3559 672.77 21.6462V21.5082C672.77 19.7865 672.284 18.4525 671.312 17.5062C670.352 16.5599 668.92 16.0868 667.014 16.0868C665.029 16.0868 663.465 16.5271 662.322 17.4076C661.192 18.2751 660.41 19.2411 659.976 20.3056L654.436 19.0439C655.093 17.2039 656.053 15.7188 657.314 14.5885C658.589 13.4451 660.055 12.6171 661.711 12.1045C663.367 11.5788 665.108 11.316 666.935 11.316C668.144 11.316 669.426 11.4605 670.779 11.7497C672.146 12.0257 673.421 12.5382 674.604 13.2874C675.8 14.0365 676.779 15.1077 677.541 16.5008C678.303 17.8808 678.685 19.6748 678.685 21.8828V41.9913H672.928V37.8513H672.692C672.31 38.6136 671.739 39.3627 670.976 40.0987C670.214 40.8347 669.235 41.4458 668.039 41.9321C666.843 42.4184 665.41 42.6616 663.741 42.6616ZM665.023 37.9301C666.652 37.9301 668.046 37.6081 669.202 36.9641C670.372 36.3201 671.259 35.479 671.864 34.4407C672.481 33.3893 672.79 32.2656 672.79 31.0696V27.1662C672.58 27.3765 672.172 27.5736 671.568 27.7576C670.976 27.9285 670.3 28.0796 669.537 28.211C668.775 28.3293 668.032 28.441 667.31 28.5462C666.587 28.6382 665.982 28.717 665.496 28.7827C664.352 28.9273 663.308 29.1705 662.361 29.5122C661.428 29.8539 660.679 30.3467 660.114 30.9907C659.562 31.6216 659.286 32.4627 659.286 33.5142C659.286 34.973 659.825 36.077 660.902 36.8261C661.98 37.5621 663.354 37.9301 665.023 37.9301Z" fill="#828282"/>
<path d="M692.43 1.61656V41.9913H686.536V1.61656H692.43Z" fill="#828282"/>
<path d="M213.796 90.0196C213.489 86.9246 212.172 84.5203 209.844 82.8065C207.517 81.0927 204.358 80.2358 200.368 80.2358C197.656 80.2358 195.367 80.6195 193.5 81.3869C191.632 82.1287 190.2 83.1646 189.202 84.4947C188.23 85.8248 187.745 87.3339 187.745 89.0221C187.693 90.4289 187.988 91.6567 188.627 92.7054C189.292 93.7541 190.2 94.6622 191.351 95.4295C192.502 96.1713 193.832 96.8235 195.341 97.3863C196.85 97.9234 198.462 98.3838 200.176 98.7675L207.235 100.456C210.663 101.223 213.809 102.246 216.674 103.525C219.539 104.804 222.02 106.377 224.117 108.244C226.215 110.112 227.839 112.311 228.99 114.844C230.167 117.376 230.768 120.279 230.793 123.553C230.768 128.362 229.54 132.531 227.11 136.061C224.706 139.565 221.227 142.289 216.674 144.233C212.146 146.152 206.685 147.111 200.291 147.111C193.947 147.111 188.422 146.139 183.716 144.195C179.035 142.251 175.377 139.373 172.743 135.562C170.134 131.726 168.765 126.981 168.637 121.328H184.713C184.892 123.962 185.647 126.162 186.977 127.927C188.333 129.666 190.136 130.984 192.387 131.879C194.664 132.749 197.234 133.183 200.099 133.183C202.913 133.183 205.355 132.774 207.427 131.956C209.525 131.137 211.149 129.999 212.3 128.541C213.451 127.083 214.026 125.408 214.026 123.515C214.026 121.75 213.502 120.266 212.453 119.064C211.43 117.862 209.921 116.839 207.926 115.995C205.956 115.151 203.539 114.383 200.674 113.693L192.118 111.544C185.494 109.933 180.263 107.413 176.426 103.986C172.589 100.558 170.684 95.9411 170.709 90.1347C170.684 85.3771 171.95 81.2206 174.508 77.6652C177.091 74.1098 180.634 71.3345 185.135 69.3394C189.637 67.3442 194.753 66.3467 200.483 66.3467C206.315 66.3467 211.405 67.3442 215.753 69.3394C220.127 71.3345 223.529 74.1098 225.959 77.6652C228.389 81.2206 229.642 85.3388 229.719 90.0196H213.796Z" fill="url(#paint0_linear_472_64)"/>
<path d="M311.299 94.9307H294.493C294.187 92.7566 293.56 90.8254 292.613 89.1372C291.667 87.4234 290.452 85.9654 288.968 84.7633C287.485 83.5611 285.771 82.6402 283.827 82.0008C281.909 81.3613 279.824 81.0416 277.573 81.0416C273.506 81.0416 269.964 82.0519 266.945 84.0726C263.927 86.0678 261.587 88.9837 259.924 92.8205C258.261 96.6317 257.43 101.261 257.43 106.71C257.43 112.311 258.261 117.018 259.924 120.829C261.612 124.64 263.965 127.518 266.984 129.462C270.002 131.406 273.493 132.378 277.458 132.378C279.683 132.378 281.743 132.084 283.635 131.495C285.554 130.907 287.255 130.05 288.738 128.925C290.222 127.774 291.45 126.38 292.422 124.743C293.419 123.106 294.11 121.238 294.493 119.141L311.299 119.218C310.864 122.824 309.777 126.303 308.037 129.654C306.324 132.979 304.009 135.959 301.093 138.593C298.202 141.202 294.749 143.274 290.733 144.809C286.743 146.318 282.229 147.073 277.19 147.073C270.181 147.073 263.914 145.487 258.389 142.315C252.89 139.143 248.542 134.552 245.344 128.541C242.172 122.53 240.587 115.253 240.587 106.71C240.587 98.1408 242.198 90.851 245.421 84.84C248.644 78.829 253.018 74.2505 258.543 71.1043C264.068 67.9326 270.283 66.3467 277.19 66.3467C281.743 66.3467 285.963 66.9861 289.851 68.2651C293.764 69.544 297.23 71.4112 300.249 73.8668C303.267 76.2967 305.722 79.2766 307.615 82.8065C309.534 86.3363 310.761 90.3777 311.299 94.9307Z" fill="url(#paint1_linear_472_64)"/>
<path d="M323.212 145.998V67.421H339.825V99.8418H373.55V67.421H390.125V145.998H373.55V113.539H339.825V145.998H323.212Z" fill="url(#paint2_linear_472_64)"/>
<path d="M476.031 106.71C476.031 115.278 474.407 122.568 471.158 128.579C467.935 134.59 463.536 139.182 457.96 142.353C452.409 145.5 446.168 147.073 439.236 147.073C432.253 147.073 425.986 145.487 420.436 142.315C414.885 139.143 410.499 134.552 407.276 128.541C404.053 122.53 402.441 115.253 402.441 106.71C402.441 98.1408 404.053 90.851 407.276 84.84C410.499 78.829 414.885 74.2505 420.436 71.1043C425.986 67.9326 432.253 66.3467 439.236 66.3467C446.168 66.3467 452.409 67.9326 457.96 71.1043C463.536 74.2505 467.935 78.829 471.158 84.84C474.407 90.851 476.031 98.1408 476.031 106.71ZM459.187 106.71C459.187 101.159 458.356 96.4782 456.694 92.667C455.057 88.8558 452.742 85.9654 449.749 83.9959C446.756 82.0263 443.252 81.0416 439.236 81.0416C435.22 81.0416 431.716 82.0263 428.723 83.9959C425.731 85.9654 423.403 88.8558 421.74 92.667C420.103 96.4782 419.285 101.159 419.285 106.71C419.285 112.26 420.103 116.941 421.74 120.752C423.403 124.564 425.731 127.454 428.723 129.423C431.716 131.393 435.22 132.378 439.236 132.378C443.252 132.378 446.756 131.393 449.749 129.423C452.742 127.454 455.057 124.564 456.694 120.752C458.356 116.941 459.187 112.26 459.187 106.71Z" fill="url(#paint3_linear_472_64)"/>
<path d="M488.337 145.998V67.421H504.951V132.301H538.638V145.998H488.337Z" fill="url(#paint4_linear_472_64)"/>
<path d="M565.188 145.998H547.386L574.512 67.421H595.921L623.009 145.998H605.206L585.523 85.3771H584.909L565.188 145.998ZM564.076 115.112H606.127V128.081H564.076V115.112Z" fill="url(#paint5_linear_472_64)"/>
<path d="M632.466 145.998V67.421H663.468C669.402 67.421 674.466 68.4825 678.661 70.6055C682.882 72.703 686.092 75.6829 688.291 79.5452C690.517 83.382 691.63 87.8966 691.63 93.0891C691.63 98.3071 690.504 102.796 688.253 106.556C686.002 110.291 682.741 113.155 678.469 115.151C674.223 117.146 669.082 118.143 663.045 118.143H642.288V104.791H660.36C663.531 104.791 666.166 104.356 668.264 103.487C670.361 102.617 671.921 101.313 672.944 99.5732C673.993 97.8339 674.517 95.6725 674.517 93.0891C674.517 90.4801 673.993 88.2803 672.944 86.4898C671.921 84.6993 670.348 83.3436 668.225 82.4228C666.128 81.4764 663.48 81.0032 660.283 81.0032H649.08V145.998H632.466ZM674.901 110.24L694.43 145.998H676.091L656.983 110.24H674.901Z" fill="url(#paint6_linear_472_64)"/>
<defs>
<filter id="filter0_d_472_64" x="52.3646" y="8.83816" width="99.522" height="79.7426" filterUnits="userSpaceOnUse" color-interpolation-filters="sRGB">
<feFlood flood-opacity="0" result="BackgroundImageFix"/>
<feColorMatrix in="SourceAlpha" type="matrix" values="0 0 0 0 0 0 0 0 0 0 0 0 0 0 0 0 0 0 127 0" result="hardAlpha"/>
<feOffset dx="0.79046" dy="0.79046"/>
<feGaussianBlur stdDeviation="1.97615"/>
<feComposite in2="hardAlpha" operator="out"/>
<feColorMatrix type="matrix" values="0 0 0 0 0 0 0 0 0 0 0 0 0 0 0 0 0 0 0.35 0"/>
<feBlend mode="normal" in2="BackgroundImageFix" result="effect1_dropShadow_472_64"/>
<feBlend mode="normal" in="SourceGraphic" in2="effect1_dropShadow_472_64" result="shape"/>
</filter>
<linearGradient id="paint0_linear_472_64" x1="164.34" y1="110.164" x2="697.34" y2="110.164" gradientUnits="userSpaceOnUse">
<stop offset="0.248339" stop-color="#6141DB"/>
<stop offset="1" stop-color="#27C13F"/>
</linearGradient>
<linearGradient id="paint1_linear_472_64" x1="164.34" y1="110.164" x2="697.34" y2="110.164" gradientUnits="userSpaceOnUse">
<stop offset="0.248339" stop-color="#6141DB"/>
<stop offset="1" stop-color="#27C13F"/>
</linearGradient>
<linearGradient id="paint2_linear_472_64" x1="164.34" y1="110.164" x2="697.34" y2="110.164" gradientUnits="userSpaceOnUse">
<stop offset="0.248339" stop-color="#6141DB"/>
<stop offset="1" stop-color="#27C13F"/>
</linearGradient>
<linearGradient id="paint3_linear_472_64" x1="164.34" y1="110.164" x2="697.34" y2="110.164" gradientUnits="userSpaceOnUse">
<stop offset="0.248339" stop-color="#6141DB"/>
<stop offset="1" stop-color="#27C13F"/>
</linearGradient>
<linearGradient id="paint4_linear_472_64" x1="164.34" y1="110.164" x2="697.34" y2="110.164" gradientUnits="userSpaceOnUse">
<stop offset="0.248339" stop-color="#6141DB"/>
<stop offset="1" stop-color="#27C13F"/>
</linearGradient>
<linearGradient id="paint5_linear_472_64" x1="164.34" y1="110.164" x2="697.34" y2="110.164" gradientUnits="userSpaceOnUse">
<stop offset="0.248339" stop-color="#6141DB"/>
<stop offset="1" stop-color="#27C13F"/>
</linearGradient>
<linearGradient id="paint6_linear_472_64" x1="164.34" y1="110.164" x2="697.34" y2="110.164" gradientUnits="userSpaceOnUse">
<stop offset="0.248339" stop-color="#6141DB"/>
<stop offset="1" stop-color="#27C13F"/>
</linearGradient>
</defs>
</svg>
