<svg width="157" height="75" viewBox="0 0 157 75" fill="none" xmlns="http://www.w3.org/2000/svg">
<path d="M16.677 46.0871L16.3157 45.4973L16.677 46.0871ZM3.38635 66.2693C3.56259 66.6082 3.9802 66.7401 4.31912 66.5638L9.842 63.6918C10.1809 63.5156 10.3128 63.098 10.1365 62.7591C9.9603 62.4202 9.54269 62.2883 9.20378 62.4645L4.29455 65.0174L1.74166 60.1082C1.56542 59.7693 1.14781 59.6374 0.808895 59.8137C0.469982 59.9899 0.338111 60.4075 0.514351 60.7464L3.38635 66.2693ZM35.0087 39.6878C34.9487 38.9988 34.9485 38.9988 34.9483 38.9988C34.9482 38.9988 34.9479 38.9988 34.9476 38.9989C34.9471 38.9989 34.9464 38.999 34.9457 38.999C34.9441 38.9992 34.9419 38.9994 34.9392 38.9996C34.9338 39.0001 34.9262 39.0008 34.9164 39.0017C34.8968 39.0036 34.8685 39.0064 34.8318 39.0102C34.7583 39.0178 34.651 39.0296 34.5123 39.0465C34.2348 39.0803 33.8312 39.1347 33.3195 39.2174C32.2964 39.3829 30.8402 39.6622 29.096 40.1184C25.6103 41.0301 20.9599 42.6525 16.3157 45.4973L17.0383 46.6769C21.536 43.9218 26.0515 42.3446 29.4461 41.4567C31.1421 41.0131 32.5547 40.7424 33.5404 40.583C34.0331 40.5033 34.4188 40.4515 34.6796 40.4197C34.81 40.4038 34.9091 40.3929 34.9747 40.3861C35.0075 40.3827 35.0319 40.3803 35.0477 40.3788C35.0555 40.3781 35.0612 40.3776 35.0647 40.3772C35.0665 40.3771 35.0677 40.377 35.0683 40.3769C35.0687 40.3769 35.0689 40.3769 35.0689 40.3769C35.0689 40.3769 35.0689 40.3769 35.0689 40.3769C35.0688 40.3769 35.0686 40.3769 35.0087 39.6878ZM16.3157 45.4973C12.1671 48.0385 8.92574 53.1616 6.74198 57.5336C5.64116 59.7375 4.79215 61.7858 4.21828 63.283C3.93118 64.0321 3.71253 64.6442 3.5653 65.0703C3.49167 65.2833 3.43587 65.4499 3.39828 65.5639C3.37948 65.6209 3.36523 65.6647 3.35558 65.6946C3.35075 65.7096 3.34707 65.7211 3.34455 65.729C3.34328 65.733 3.34231 65.736 3.34163 65.7382C3.34128 65.7393 3.34101 65.7401 3.34082 65.7407C3.34072 65.741 3.34062 65.7413 3.34057 65.7415C3.3405 65.7417 3.34044 65.7419 4 65.9502C4.65957 66.1585 4.65955 66.1585 4.65954 66.1585C4.65957 66.1585 4.65958 66.1584 4.65963 66.1583C4.65972 66.158 4.65988 66.1575 4.66012 66.1567C4.66059 66.1553 4.66135 66.1529 4.66239 66.1496C4.66448 66.1431 4.66771 66.133 4.67209 66.1194C4.68084 66.0923 4.69416 66.0513 4.71199 65.9972C4.74765 65.8891 4.80137 65.7287 4.87276 65.5221C5.01556 65.1089 5.22897 64.5113 5.50998 63.7781C6.07231 62.311 6.90367 60.3056 7.97952 58.1517C10.1491 53.8082 13.2462 48.9997 17.0383 46.6769L16.3157 45.4973Z" fill="#6141DB"/>
<path d="M49.046 53.3547C48.5629 53.2305 48.1735 53.1179 47.8777 53.0168C47.5825 52.9424 47.4349 52.9052 47.4349 52.9052C47.4857 52.7707 47.4567 52.6511 47.3478 52.5464C47.2657 52.4411 47.0775 52.378 46.7833 52.357C46.3782 52.1245 45.9985 51.8248 45.6442 51.4577C45.3171 51.1169 45.0434 50.775 44.8231 50.4321C44.6028 50.0892 44.437 49.7987 44.3255 49.5605C44.1309 49.1636 44.0328 48.9252 44.0312 48.8451C44.0559 48.7378 44.2137 48.6146 44.5048 48.4754C44.7943 48.2561 45.0066 48.1852 45.1416 48.2627C45.3033 48.3397 45.4954 48.6031 45.7178 49.0527C46.0767 49.66 46.6731 50.1158 47.5069 50.4201C48.3674 50.7239 49.318 50.8524 50.3586 50.8055C51.4254 50.7314 52.4352 50.4715 53.388 50.0257C54.368 49.6061 54.974 49.1804 55.206 48.7486C55.4641 48.2896 55.3596 47.7174 54.8923 47.0321C54.808 46.8201 54.7112 46.6484 54.6019 46.517C54.4925 46.3855 54.3156 46.2154 54.0712 46.0065C53.8535 45.797 53.4863 45.457 52.9698 44.9863C52.5657 44.8072 52.1886 44.6409 51.8385 44.4874C51.515 44.3335 51.1646 44.1667 50.7872 43.9871C50.3559 43.7818 49.8294 43.4849 49.2076 43.0963C48.612 42.6806 48.0423 42.2243 47.4986 41.7274C46.9548 41.2305 46.5586 40.7708 46.3101 40.3483C45.8752 39.9562 45.5442 39.4151 45.3172 38.7252C45.0896 38.0085 44.9948 37.2492 45.0327 36.4473C45.0705 35.6454 45.2568 34.9207 45.5914 34.2732C45.7443 33.8964 46.0025 33.4374 46.3659 32.8962C46.7554 32.3278 47.1851 31.7586 47.6547 31.1887C48.1244 30.6187 48.5817 30.1025 49.0268 29.6398C49.4718 29.1772 49.8393 28.8496 50.1294 28.657C50.3388 28.4393 50.5616 28.2213 50.7977 28.0031C51.0333 27.7582 51.1511 27.6357 51.1511 27.6357C51.1752 27.5017 51.214 27.4342 51.2674 27.4332C51.3475 27.4316 51.3875 27.4308 51.3875 27.4308C51.5194 27.3481 51.8105 27.209 52.2607 27.0133C52.7109 26.8176 53.1981 26.461 53.7222 25.9434C55.4943 25.0544 56.937 24.3989 58.0505 23.9767C59.164 23.5545 60.0811 23.3364 60.802 23.3224C61.4699 23.3362 62.0736 23.4847 62.6133 23.768C63.1791 24.0241 63.6399 24.3757 63.9957 24.8228C64.3783 25.2694 64.6158 25.8123 64.7083 26.4514C64.9076 27.0885 64.8687 27.8371 64.5917 28.697C64.314 29.5303 63.8888 30.3264 63.316 31.0853C62.7694 31.817 62.166 32.3761 61.5058 32.7628C60.7645 33.0977 60.2601 33.2543 59.9926 33.2328C59.7513 33.1841 59.6391 32.9058 59.656 32.3981C59.6518 32.1845 59.7137 31.9296 59.8415 31.6334C59.9959 31.3366 60.3996 30.808 61.0525 30.0476C61.8825 28.7763 62.3837 27.7651 62.556 27.0139C62.7284 26.2628 62.5469 25.8524 62.0114 25.7827C61.8502 25.7324 61.5565 25.7381 61.1304 25.7997C60.731 25.8609 60.2787 25.9498 59.7736 26.0664C59.2946 26.1558 58.8826 26.2573 58.5376 26.3708C58.1921 26.4576 58.0199 26.5277 58.0209 26.5811C58.0209 26.5811 58.0217 26.6212 58.0232 26.7013C58.0248 26.7813 57.9719 26.8091 57.8646 26.7844C57.8112 26.7855 57.5864 26.8967 57.1901 27.118C56.7938 27.3393 56.3187 27.629 55.7648 27.9869C55.2109 28.3448 54.657 28.7027 54.1031 29.0607C53.5492 29.4186 53.0746 29.7349 52.6794 30.0096C52.3103 30.2572 52.1129 30.4079 52.0872 30.4618C52.0395 30.7565 51.7377 31.0294 51.1817 31.2805C50.654 31.6112 50.1692 32.088 49.7273 32.7108C49.312 33.3331 48.8463 34.1033 48.3299 35.0213C47.888 35.6441 47.5806 36.3177 47.4077 37.0422C47.2343 37.7399 47.2452 38.3005 47.4403 38.724C47.5821 39.1486 48.0065 39.6878 48.7135 40.3418C49.4206 40.9957 50.3006 41.6196 51.3537 42.2135C52.2712 42.7031 53.0953 43.1945 53.8259 43.6878C54.556 44.1543 55.1524 44.6101 55.6151 45.0552C56.1044 45.4997 56.4325 45.8939 56.5994 46.2379C56.9286 46.6855 57.1646 47.1483 57.3074 47.6262C57.4763 48.0769 57.565 48.5159 57.5733 48.943C57.6082 49.3696 57.5757 49.7575 57.4756 50.1066C57.2971 50.5374 56.9719 50.9844 56.5002 51.4475C56.0551 51.9102 55.6722 52.1312 55.3513 52.1108C55.0592 52.1965 54.8341 52.2944 54.676 52.4043C54.5446 52.5136 54.3862 52.6102 54.2009 52.6939C54.0161 52.8043 53.6177 52.9189 53.0058 53.0375C52.4205 53.1557 51.7677 53.2351 51.0475 53.2758C50.3277 53.3432 49.6605 53.3695 49.046 53.3547ZM80.3425 49.0623C80.208 49.0115 80.0052 48.8819 79.7341 48.6735C79.463 48.4651 79.2291 48.1091 79.0324 47.6055C78.8351 47.0752 78.7275 46.3429 78.7094 45.4085C78.7205 44.6071 78.7217 43.9795 78.7129 43.5256C78.7308 43.0713 78.633 42.8462 78.4194 42.8503C78.2058 42.8545 77.7962 43.076 77.1904 43.5151C76.6109 43.9269 75.9407 44.4874 75.18 45.1965C74.4193 45.9056 73.6467 46.6951 72.8624 47.5649C72.6012 47.8638 72.3396 48.1492 72.0778 48.4214C71.8422 48.6663 71.6051 48.8311 71.3664 48.9159C71.1271 48.9739 70.845 48.8859 70.52 48.6519L70.0725 48.3C69.9364 48.1691 69.8538 48.0372 69.8245 47.9042C69.7947 47.7446 69.8047 47.5708 69.8544 47.3829L70.7242 44.7221C71.1327 43.7527 71.4129 43.0529 71.5648 42.6227C71.7162 42.1658 71.7908 41.8839 71.7888 41.7771C71.7862 41.6436 71.7451 41.591 71.6655 41.6193C71.4525 41.6501 71.1347 41.7898 70.7122 42.0383C70.2892 42.2602 70.013 42.4792 69.8837 42.6954C69.7769 42.6974 69.6191 42.8207 69.4102 43.0651C69.2012 43.3095 68.9387 43.5416 68.6225 43.7614C68.4418 44.0853 68.0761 44.5064 67.5253 45.0245C67.0012 45.5421 66.4774 46.073 65.9538 46.6173C65.6124 46.9177 65.2724 47.2848 64.9336 47.7187C64.6215 48.152 64.3485 48.5312 64.1144 48.8562C63.9071 49.1807 63.7633 49.3438 63.6833 49.3453C63.3362 49.352 63.014 49.2648 62.7167 49.0836C62.4462 48.9019 62.24 48.5988 62.0982 48.1743C61.8758 47.7246 61.8637 47.0972 62.0617 46.2922C62.2592 45.4604 62.4788 44.3879 62.7204 43.0746C62.8194 42.6721 62.8805 42.3772 62.9035 42.1898C62.9266 42.0024 62.963 41.8147 63.0128 41.6268C63.0887 41.4117 63.2027 41.089 63.3546 40.6588C63.5332 40.228 63.801 39.5818 64.1582 38.7203C64.3353 38.2095 64.4348 37.8336 64.4568 37.5929C64.505 37.3249 64.5281 37.1375 64.526 37.0307C64.5209 36.7637 64.5832 36.5355 64.7131 36.346C64.8696 36.1561 65.0539 36.019 65.2659 35.9347C65.4779 35.8505 65.6779 35.8333 65.8658 35.883C66.1605 35.9307 66.417 36.0726 66.6352 36.3088C66.8801 36.5444 67.0201 36.8755 67.0551 37.3021C67.088 37.622 67.067 37.9161 66.9921 38.1846C66.9166 38.4265 66.8409 38.6549 66.765 38.8701L66.3455 39.9598C66.2177 40.2561 66.0524 40.6866 65.8497 41.2513C65.647 41.8161 65.4703 42.3403 65.3194 42.8239C65.168 43.2809 65.0931 43.5494 65.0947 43.6295C65.1229 43.7091 65.2161 43.6939 65.3742 43.584C65.5318 43.4474 65.7287 43.27 65.9648 43.0518C66.2271 42.8063 66.4896 42.5742 66.7525 42.3555C67.3027 41.8107 67.9203 41.2913 68.605 40.7973C69.316 40.2761 69.9885 39.8357 70.6225 39.4763C71.2564 39.1168 71.7459 38.8803 72.0909 38.7668C72.5447 38.758 72.8533 38.8321 73.0166 38.9892C73.2066 39.1457 73.5193 39.4334 73.9547 39.8523C74.1452 40.0356 74.2566 40.2738 74.289 40.5669C74.3214 40.86 74.3135 41.1406 74.2653 41.4086C74.2407 41.5159 74.1658 41.7844 74.0406 42.2142C73.9148 42.6172 73.7889 43.0069 73.6626 43.3832C73.5631 43.759 73.5133 43.9469 73.5133 43.9469C73.5133 43.9469 73.6576 43.8106 73.9461 43.538C74.2612 43.2648 74.6028 42.9777 74.9709 42.6768C75.3384 42.3492 75.6141 42.1035 75.7979 41.9397C76.8235 41.1186 77.7213 40.5938 78.4914 40.3652C79.2614 40.1366 79.8942 40.4048 80.3898 41.1697C80.7158 41.4571 80.8822 41.7744 80.8889 42.1214C80.9224 42.4679 80.9474 43.0683 80.9639 43.9226C80.9974 44.2692 81.0321 44.6824 81.0681 45.1625C81.1041 45.6425 81.1394 46.0824 81.1738 46.4824C81.2345 46.8551 81.2922 47.081 81.3472 47.16C81.4294 47.2653 81.578 47.3558 81.7931 47.4318C82.0344 47.4805 82.3425 47.528 82.7172 47.5741C83.1187 47.6197 83.3624 47.7886 83.4481 48.0807C83.5339 48.3728 83.3658 48.6565 82.9439 48.9317C82.5481 49.1798 82.1097 49.2951 81.6286 49.2777C81.1476 49.2603 80.7189 49.1885 80.3425 49.0623ZM84.9751 49.2128C84.8642 49.0013 84.7276 48.8437 84.5654 48.7401C84.4026 48.6097 84.3202 48.4911 84.3181 48.3843C84.3161 48.2775 84.3006 48.171 84.2719 48.0647C84.2693 47.9313 84.2136 47.8122 84.1047 47.7074C83.9681 47.5499 83.9745 47.1892 84.1238 46.6255C84.2726 46.035 84.5258 45.3224 84.8835 44.4876C85.2407 43.626 85.6638 42.7232 86.153 41.779C86.3624 41.5613 86.5705 41.2768 86.7774 40.9256C86.9842 40.5744 87.14 40.3444 87.2447 40.2355C87.2426 40.1287 87.2808 40.0345 87.3594 39.9529C87.4374 39.8446 87.5298 39.7893 87.6366 39.7873L87.6319 39.547C87.6293 39.4135 87.7451 39.1843 87.9791 38.8593C88.2399 38.5337 88.5535 38.1805 88.92 37.7995C89.286 37.3918 89.6658 37.0105 90.0596 36.6557C90.4527 36.2742 90.7813 36.0008 91.0451 35.8354C91.5985 35.4508 92.1681 35.2127 92.7538 35.1213C93.3663 35.0293 93.8895 35.1526 94.3233 35.4914C94.405 35.5699 94.5411 35.7008 94.7316 35.8841C94.9221 36.0673 95.1398 36.2768 95.3847 36.5124C95.6558 36.7208 95.9272 36.9425 96.1988 37.1776L97.7061 38.4703L97.0241 40.4865C96.6977 41.5611 96.6224 42.4973 96.7981 43.2951C97.0005 44.0924 97.281 44.7813 97.6394 45.3619C97.7786 45.6529 98.051 45.9281 98.4566 46.1873C98.8889 46.446 99.2925 46.5984 99.6673 46.6445C99.8813 46.6671 100.083 46.7433 100.273 46.8731C100.462 47.003 100.56 47.2147 100.565 47.5084C100.57 47.7754 100.521 47.99 100.418 48.1522C100.314 48.3145 100.129 48.4249 99.8632 48.4835C98.9842 48.6073 98.1525 48.4098 97.368 47.8909C96.6101 47.3715 95.8989 46.5039 95.2344 45.2883C95.1245 45.1302 94.972 44.8394 94.7768 44.4159C94.6078 43.9652 94.5087 43.6733 94.4794 43.5404C94.3752 43.6759 94.1799 43.9334 93.8935 44.3128C93.6066 44.6656 93.3846 44.9236 93.2275 45.0869C91.3694 47.0458 89.7526 48.3724 88.3774 49.0667C87.0283 49.7338 85.8942 49.7825 84.9751 49.2128ZM86.3733 46.9424C86.3769 47.1293 86.6572 47.1238 87.2142 46.9261C87.7974 46.7011 88.4175 46.3152 89.0745 45.7683C89.9672 44.9765 90.8583 44.1046 91.7479 43.1527C92.6641 42.2002 93.3948 41.3181 93.9399 40.5063L94.7929 39.0476C94.514 38.4388 94.2123 38.0307 93.8879 37.8233C93.5895 37.5887 93.3336 37.4735 93.12 37.4777C92.773 37.4844 92.2586 37.8148 91.5769 38.469C90.9219 39.1227 90.2177 39.9909 89.4642 41.0738C88.7107 42.1567 87.9994 43.3455 87.3301 44.6404C87.0735 45.1795 86.8433 45.7048 86.6396 46.2161C86.462 46.7003 86.3733 46.9424 86.3733 46.9424ZM104.622 49.0321C104.542 49.0604 104.408 49.0496 104.221 48.9998C104.033 48.9501 103.844 48.887 103.656 48.8105C103.468 48.734 103.346 48.6696 103.292 48.6173C103.183 48.5125 103.073 48.3544 102.962 48.1429C102.878 47.9309 102.872 47.6239 102.944 47.2219C103.016 46.7932 103.272 46.2408 103.713 45.5646C103.842 45.295 103.994 44.8915 104.171 44.3539C104.347 43.8164 104.523 43.2521 104.699 42.6612C104.9 42.043 105.076 41.4921 105.227 41.0085C105.405 40.5243 105.532 40.188 105.608 39.9996C105.653 39.5447 105.62 39.2249 105.51 39.0401C105.425 38.8281 105.196 38.7123 104.822 38.6929C104.555 38.6981 104.341 38.6755 104.18 38.6252C104.045 38.5744 103.973 38.3087 103.964 37.8282C104.01 37.4534 104.099 37.198 104.229 37.0619C104.386 36.8986 104.597 36.721 104.86 36.5289C105.124 36.3903 105.39 36.2917 105.655 36.2331C105.948 36.174 106.228 36.1552 106.496 36.1767C106.763 36.1983 106.979 36.2875 107.142 36.4446C107.331 36.5478 107.456 36.7857 107.516 37.1584C107.576 37.5044 107.61 37.8643 107.617 38.2381C107.651 38.6113 107.683 38.8911 107.714 39.0775C107.976 38.8587 108.331 38.5581 108.778 38.1755C109.251 37.7658 109.657 37.384 109.997 37.0302C110.419 36.7283 110.92 36.4248 111.502 36.1197C112.083 35.788 112.507 35.6195 112.774 35.6143C113.068 35.6086 113.363 35.683 113.66 35.8375C113.956 35.9653 114.16 36.1349 114.27 36.3464C114.546 36.7951 114.674 37.1932 114.654 37.5408C114.661 37.8878 114.521 38.2511 114.235 38.6305C113.974 38.9828 113.645 39.2295 113.248 39.3707C112.876 39.5115 112.637 39.5829 112.531 39.5849C112.37 39.588 112.168 39.4718 111.923 39.2362C111.678 39.0006 111.541 38.8029 111.511 38.6433C111.509 38.5632 111.337 38.6467 110.995 38.8936C110.679 39.1134 110.324 39.4007 109.93 39.7556C109.536 40.0837 109.208 40.3838 108.946 40.6559C108.503 41.2254 108.037 41.9955 107.549 42.9664C107.06 43.9373 106.482 45.1103 105.814 46.4852C105.507 47.1589 105.291 47.7372 105.167 48.2204C105.042 48.6768 104.86 48.9474 104.622 49.0321ZM120.276 51.9734C119.392 51.857 118.785 51.5349 118.455 51.0072C118.151 50.5057 118.069 49.7194 118.209 48.6485C118.359 48.1381 118.444 47.6825 118.463 47.2815C118.508 46.8533 118.623 46.584 118.807 46.4736C118.807 46.4736 118.82 46.4333 118.845 46.3527C118.897 46.2716 118.882 46.1918 118.8 46.1132C118.794 45.7662 118.904 45.2833 119.133 44.6646C119.183 44.5034 119.246 44.3153 119.322 44.1001C119.424 43.8578 119.475 43.7366 119.475 43.7366C119.338 43.5257 119.334 43.3521 119.465 43.2161C119.596 43.08 119.727 42.9573 119.859 42.8479C120.016 42.7113 120.027 42.5642 119.89 42.4066C119.835 42.3009 119.897 42.0593 120.076 41.6819C120.256 41.2779 120.461 40.8599 120.693 40.4281C120.925 39.9963 121.079 39.6595 121.154 39.4177C121.153 39.3643 121.216 39.1761 121.344 38.8532C121.471 38.5303 121.624 38.1534 121.802 37.7226C121.981 37.2919 122.147 36.9014 122.3 36.5513C122.481 36.2006 122.596 35.9713 122.648 35.8635C122.912 35.7248 122.803 35.6335 122.322 35.5894C121.84 35.5453 121.333 35.5418 120.799 35.5789C119.971 35.5682 119.303 35.5411 118.795 35.4976C118.313 35.4535 117.91 35.3411 117.587 35.1605C117.259 34.7929 117.134 34.5283 117.211 34.3666C117.314 34.1776 117.632 34.0646 118.165 34.0276C118.512 33.9941 118.779 33.9756 118.966 33.972C119.179 33.9679 119.446 33.9493 119.766 33.9164C120.112 33.8563 120.644 33.7792 121.364 33.6851L123.403 33.4854L123.51 32.8023C123.716 32.4511 123.884 32.1407 124.012 31.8711C124.167 31.5744 124.295 31.2781 124.396 30.9824C124.497 30.6867 124.571 30.3781 124.618 30.0567C124.618 30.0567 124.734 29.8408 124.966 29.409C125.198 28.9505 125.335 28.4805 125.379 27.9989C125.689 27.4588 125.96 26.9728 126.192 26.541C126.424 26.0825 126.565 25.7994 126.617 25.6915C126.906 25.4456 127.103 25.3216 127.21 25.3195C127.344 25.3169 127.613 25.4452 128.019 25.7044C128.262 25.8332 128.478 25.9893 128.669 26.1725C128.859 26.3558 128.983 26.5537 129.041 26.7662C129.098 26.952 129.022 27.1405 128.812 27.3315C128.76 27.4393 128.684 27.6411 128.583 27.9368C128.481 28.2058 128.406 28.4343 128.356 28.6222C128.199 28.8122 128.005 29.1231 127.773 29.5549C127.567 29.9595 127.428 30.3761 127.357 30.8048C127.152 31.2628 126.96 31.6805 126.78 32.0578C126.6 32.4085 126.456 32.5849 126.35 32.587C126.408 32.8529 126.571 32.9833 126.838 32.9781C127.104 32.9462 127.544 32.911 128.158 32.8724C128.664 32.8091 129.01 32.749 129.196 32.692C129.408 32.6078 129.649 32.6298 129.918 32.7581C130.055 32.9424 130.166 33.1539 130.251 33.3926C130.336 33.6313 130.354 33.858 130.304 34.0726C130.281 34.26 130.177 34.3955 129.992 34.4792C129.858 34.4818 129.58 34.5674 129.155 34.7358C128.758 34.8771 128.252 34.967 127.638 35.0056L125.52 35.247L124.866 36.6217C124.685 36.9724 124.532 37.2958 124.404 37.5921C124.275 37.8616 124.185 38.0236 124.133 38.078C124.136 38.2382 124.047 38.4803 123.866 38.8043C123.712 39.1277 123.546 39.4782 123.366 39.8555C123.215 40.3125 123.036 40.7299 122.829 41.1078C122.65 41.4852 122.56 41.6738 122.56 41.6738C122.453 41.6759 122.401 41.757 122.405 41.9172C122.544 42.235 122.509 42.476 122.298 42.6403C122.166 42.723 122.049 42.8455 121.945 43.0077C121.867 43.1428 121.829 43.2103 121.829 43.2103C121.938 43.315 121.953 43.4482 121.876 43.61C121.826 43.7712 121.749 43.9462 121.646 44.1352C121.65 44.3488 121.59 44.6571 121.464 45.0601C121.365 45.4626 121.252 45.8387 121.125 46.1883C121.161 46.6683 121.194 46.9748 121.223 47.1078C121.253 47.2408 121.32 47.2929 121.427 47.2641C121.561 47.2882 121.681 47.2859 121.787 47.2571C121.893 47.2283 122 47.2129 122.107 47.2109C122.477 47.0434 122.295 47.9817 121.56 50.0256C121.146 50.7013 120.862 51.1875 120.707 51.4843C120.553 51.8078 120.41 51.9708 120.276 51.9734ZM133.737 49.8295C132.562 49.8523 131.593 49.4305 130.828 48.564C130.063 47.6708 129.681 46.5565 129.681 45.2212C129.716 44.2591 129.883 43.2277 130.182 42.1269C130.508 40.9989 130.941 39.9223 131.482 38.897C132.022 37.8449 132.619 36.9253 133.271 36.1382C133.923 35.3511 134.607 34.7903 135.321 34.456C135.586 34.3173 135.864 34.2051 136.156 34.1193C136.475 34.033 136.795 33.9868 137.115 33.9806C137.409 33.9749 137.717 34.0223 138.039 34.1229C138.361 34.1968 138.63 34.285 138.845 34.3877C139.303 34.5657 139.654 34.7859 139.9 35.0482C140.145 35.3105 140.367 35.7202 140.564 36.2772C140.654 36.7829 140.701 37.1425 140.706 37.3561C140.71 37.5696 140.649 37.8913 140.524 38.321C140.222 39.2883 139.825 40.1239 139.331 40.8278C138.837 41.5318 138.168 42.1323 137.323 42.6294C137.112 42.767 136.86 42.8787 136.568 42.9645C136.302 43.0231 136.022 43.0552 135.729 43.0609C135.195 43.0713 134.672 42.9879 134.161 42.8109C133.677 42.6066 133.284 42.3071 132.982 41.9124L132.696 41.5975L132.582 41.9201C132.329 42.6461 132.128 43.3177 131.98 43.9348C131.858 44.5514 131.803 45.1133 131.812 45.6205C131.819 45.9409 131.851 46.2474 131.91 46.54C131.996 46.8321 132.108 47.0837 132.245 47.2946C132.355 47.4528 132.531 47.5695 132.773 47.645C133.041 47.6932 133.322 47.7144 133.616 47.7087C133.802 47.7051 133.989 47.7015 134.176 47.6979C134.389 47.667 134.588 47.6098 134.774 47.526C135.224 47.3571 135.581 47.1765 135.845 46.9845C136.135 46.7919 136.425 46.586 136.714 46.3667L136.873 46.2835L136.833 46.2843C137.15 46.1179 137.427 45.9523 137.664 45.7875C137.928 45.6221 138.06 45.5394 138.06 45.5394C138.167 45.5374 138.272 45.4686 138.377 45.333C138.588 45.2221 138.856 45.257 139.18 45.4376C139.53 45.6178 139.709 45.8547 139.714 46.1483C139.69 46.2823 139.574 46.4982 139.366 46.796C139.158 47.0671 138.923 47.3254 138.66 47.5708C138.425 47.8158 138.227 47.9531 138.067 47.9829C138.041 48.0102 137.949 48.0654 137.79 48.1486C137.631 48.2051 137.525 48.2605 137.473 48.3149L137.513 48.3142C137.279 48.6392 137.042 48.804 136.802 48.8087L136.481 48.8149C136.378 49.0038 136.035 49.2241 135.452 49.4758C134.869 49.7008 134.297 49.8187 133.737 49.8295ZM135.368 40.9848C135.848 40.9755 136.26 40.834 136.602 40.5603C136.97 40.2594 137.284 39.9328 137.544 39.5806C138.064 38.8494 138.357 38.1494 138.425 37.4804C138.518 36.7842 138.429 36.3053 138.156 36.0435C137.995 35.9665 137.847 35.9293 137.714 35.9319C137.606 35.9073 137.38 35.9517 137.035 36.0652C136.796 36.1233 136.466 36.33 136.046 36.6853C135.625 37.0406 135.206 37.436 134.787 37.8714C134.395 38.3063 134.095 38.6727 133.887 38.9705L133.382 39.8215C133.594 39.7373 133.794 39.6934 133.981 39.6897C134.194 39.6589 134.314 39.6699 134.342 39.7228C134.347 39.9631 134.391 40.1892 134.475 40.4012C134.586 40.586 134.709 40.7305 134.844 40.8347C135.006 40.9384 135.181 40.9884 135.368 40.9848ZM143.646 48.1151C143.402 47.9329 143.225 47.7494 143.115 47.5646C143.031 47.3793 143.024 47.0189 143.094 46.4834C143.159 45.7343 143.253 45.0782 143.376 44.515C143.498 43.9251 143.645 43.2546 143.818 42.5034C143.865 42.1821 144.001 41.6319 144.226 40.8531C144.478 40.0737 144.782 39.2266 145.138 38.3116C145.495 37.3967 145.852 36.5352 146.21 35.7271C146.568 34.8922 146.876 34.272 147.135 33.8664C147.346 33.702 147.598 33.6304 147.892 33.6514C148.213 33.6719 148.483 33.7868 148.7 33.9963C148.999 34.2308 149.047 34.6572 148.845 35.2754C148.67 35.8663 148.287 36.8084 147.698 38.1018C147.392 38.8288 147.162 39.3807 147.009 39.7576C146.856 40.1077 146.793 40.3226 146.821 40.4022C146.849 40.455 146.969 40.4127 147.18 40.275C147.334 39.9783 147.621 39.6389 148.041 39.2568C148.46 38.8481 148.907 38.4522 149.38 38.0691C149.853 37.6861 150.301 37.3436 150.722 37.0416C151.144 36.7397 151.434 36.5471 151.592 36.4639C151.803 36.3263 152.041 36.2149 152.307 36.1296C152.598 36.0171 152.797 35.9331 152.903 35.8777C153.511 35.5721 154.137 35.4532 154.779 35.5208C155.421 35.5885 155.826 35.821 155.994 36.2183C156.025 36.4314 156.108 36.59 156.244 36.6942C156.406 36.7979 156.487 36.8497 156.487 36.8497C156.594 36.8477 156.648 36.8867 156.65 36.9667C156.678 37.0463 156.692 37.0861 156.692 37.0861C156.696 37.273 156.551 37.396 156.258 37.455C155.992 37.4869 155.645 37.5203 155.219 37.5553C154.872 37.5888 154.567 37.6614 154.302 37.7734C154.037 37.8854 153.719 38.0251 153.348 38.1925C152.345 38.7995 151.382 39.3924 150.459 39.9711C149.562 40.5493 148.695 41.3139 147.859 42.2648C147.676 42.482 147.494 42.7393 147.313 43.0366C147.132 43.3338 146.938 43.6581 146.731 44.0093C146.6 44.1453 146.472 44.4416 146.348 44.898C146.223 45.3544 146.112 45.7973 146.013 46.2265C145.941 46.6285 145.905 46.8695 145.907 46.9496C145.907 46.9496 145.869 47.0839 145.795 47.3524C145.719 47.5942 145.59 47.8371 145.408 48.0809C145.096 48.5143 144.833 48.733 144.62 48.7372C144.406 48.7413 144.082 48.534 143.646 48.1151Z" fill="#6141DB"/>
</svg>
