<svg width="131" height="35" viewBox="0 0 131 35" fill="none" xmlns="http://www.w3.org/2000/svg">
<path d="M1.80049 5.95344C1.70314 5.90188 1.58842 5.97298 1.58842 6.08314C1.58842 7.765 1.58842 9.68681 1.58842 11.2385C1.58842 13.0862 1.70391 16.5606 2.1241 18.2794C2.54428 19.9983 3.37382 21.5901 4.54201 22.9191C5.7102 24.2482 6.55684 25.3008 8.6099 27.1486C9.71856 28.1464 10.6644 28.9098 11.5663 28.9963C12.4542 29.0815 13.5833 28.4117 14.7075 27.629C16.1488 26.6256 17.7378 25.6334 18.8218 24.6901C20.2877 23.4144 21.4614 22.2928 22.3023 20.7359C22.8989 19.3686 23.392 18.186 23.6011 15.5253C23.6027 15.3897 23.6409 15.3587 23.5068 15.3789L21.0638 15.747C19.8812 16.0057 18.2842 16.597 17.7378 17.2622C16.9267 18.2496 15.88 19.2034 15.5023 19.5713C15.4688 19.6039 15.4334 19.6333 15.3943 19.6589C14.7718 20.0663 14.0623 20.3224 13.3225 20.4062C12.5595 20.4928 11.7868 20.3935 11.0704 20.117C10.3539 19.8404 9.71498 19.3947 9.20798 18.8179C8.70098 18.2411 8.34096 17.5502 8.1586 16.8042C7.97624 16.0583 7.79689 15.0818 7.79689 14.3057C7.68602 12.7167 7.70724 12.3203 7.24256 11.1646C6.71373 9.84925 6.12718 9.22178 5.13611 8.20814C4.2276 7.27893 2.41786 6.28042 1.80049 5.95344Z" fill="#6141DB"/>
<g opacity="0.7">
<path d="M9.69638 19.4961L10.9973 18.2558M3.27646 7.30761L4.08312 8.15615L1.49187 10.6954L1.53755 9.0017L3.27646 7.30761ZM10.1854 12.6489L10.9921 13.4971L5.99512 18.2492L5.18846 17.401L10.1854 12.6489ZM5.03437 11.5909L5.84103 12.4391L1.69366 15.9457L1.53755 14.5908L5.03437 11.5909ZM7.64236 12.085L8.44901 12.9336L4.50784 16.6816L3.70118 15.8334L7.64236 12.085ZM3.87137 9.72452L4.67835 10.5727L1.53755 13.4971L1.53755 11.5909L3.87137 9.72452ZM10.7074 15.1268L11.1961 19.7706L6.67358 18.963L10.7074 15.1268Z" stroke="white" stroke-width="0.221731" stroke-linecap="round" stroke-linejoin="round"/>
</g>
<g filter="url(#filter0_d_153_235)">
<path d="M24.3054 15.1565V15.1566C24.3054 16.8644 21.9912 18.2488 19.1364 18.2488C16.6685 18.2488 14.6052 17.214 14.0913 15.8303L13.8671 15.7764V15.3882L13.7667 15.3432C13.538 15.2405 13.538 15.0726 13.7667 14.97L13.8671 14.9249V11.4822L16.9808 12.3456C17.6369 12.1652 18.367 12.0645 19.1364 12.0645C19.9535 12.0645 20.7261 12.178 21.413 12.38L24.3054 11.6849V15.1565Z" fill="#132028"/>
<path d="M14.4439 16.7629L14.6179 18.6576C14.6509 19.0168 14.3865 19.3347 14.0273 19.3677C13.6681 19.4007 13.3502 19.1363 13.3172 18.7771C13.3138 18.7373 13.3138 18.6973 13.3172 18.6575L13.4912 16.7629C13.5154 16.4998 13.7482 16.3062 14.0113 16.3303C14.2447 16.3518 14.4234 16.5377 14.4439 16.7629Z" fill="#FFB636"/>
<path d="M18.285 15.2932L10.6582 11.0601C10.2923 10.857 10.2923 10.5248 10.6582 10.3217L18.285 6.08862C18.6509 5.88554 19.2496 5.88554 19.6155 6.08862L27.2424 10.3217C27.6082 10.5248 27.6082 10.8571 27.2424 11.0602L19.6155 15.2932C19.2496 15.4963 18.6509 15.4963 18.285 15.2932Z" fill="#464A4C"/>
<path d="M13.9676 16.9902C13.4263 16.9902 12.9876 16.5514 12.9876 16.0102V15.7567C12.9876 15.2155 13.4263 14.7767 13.9676 14.7767C14.5088 14.7767 14.9475 15.2155 14.9475 15.7567V16.0102C14.9475 16.5514 14.5088 16.9902 13.9676 16.9902Z" fill="#27C13F"/>
<path d="M13.9676 16.0795C13.6861 16.0795 13.458 15.8513 13.458 15.5699V13.2516C13.458 13.0705 13.5541 12.903 13.7105 12.8116L18.6932 9.9C18.9362 9.75803 19.2483 9.83991 19.3903 10.0829C19.5323 10.3259 19.4504 10.638 19.2074 10.78L14.4772 13.544V15.5699C14.4772 15.8513 14.249 16.0795 13.9676 16.0795Z" fill="#FFB636"/>
<path d="M20.11 10.34C20.11 10.7895 19.5908 11.1539 18.9503 11.1539C18.3098 11.1539 17.7906 10.7895 17.7906 10.34C17.7906 9.8905 18.3098 9.52612 18.9503 9.52612C19.5908 9.52612 20.11 9.8905 20.11 10.34Z" fill="#132028"/>
</g>
<path d="M52.3935 2.4497L54.4949 8.59906H54.5797L56.6811 2.4497H57.9124L55.1954 10H53.8792L51.1622 2.4497H52.3935ZM60.7871 10.1143C60.2292 10.1143 59.7487 9.99508 59.3456 9.75668C58.945 9.51582 58.6353 9.17787 58.4166 8.74284C58.2003 8.30536 58.0922 7.79291 58.0922 7.2055C58.0922 6.62547 58.2003 6.11425 58.4166 5.67185C58.6353 5.22945 58.9401 4.88413 59.3309 4.63589C59.7241 4.38766 60.1837 4.26354 60.7097 4.26354C61.0292 4.26354 61.3389 4.31638 61.6388 4.42206C61.9386 4.52775 62.2077 4.69365 62.4461 4.91977C62.6845 5.14588 62.8726 5.43959 63.0102 5.80088C63.1478 6.15972 63.2166 6.59597 63.2166 7.10965V7.50044H58.7152V6.67462H62.1365C62.1365 6.3846 62.0775 6.12777 61.9595 5.90411C61.8415 5.67799 61.6756 5.4998 61.4618 5.36954C61.2504 5.23928 61.0022 5.17415 60.7171 5.17415C60.4074 5.17415 60.137 5.25034 59.906 5.40272C59.6774 5.55264 59.5005 5.74927 59.3751 5.99259C59.2522 6.23345 59.1908 6.4952 59.1908 6.77785V7.42302C59.1908 7.80151 59.2572 8.12348 59.3899 8.38892C59.5251 8.65436 59.7131 8.85713 59.9539 8.99723C60.1948 9.13486 60.4762 9.20368 60.7982 9.20368C61.0071 9.20368 61.1976 9.17419 61.3696 9.1152C61.5417 9.05375 61.6904 8.96282 61.8157 8.84238C61.9411 8.72195 62.0369 8.57326 62.1033 8.3963L63.1466 8.58432C63.063 8.89154 62.9131 9.16067 62.6968 9.3917C62.483 9.62027 62.2139 9.79846 61.8894 9.92627C61.5675 10.0516 61.2 10.1143 60.7871 10.1143ZM65.542 6.63775V10H64.4397V4.33727H65.4978V5.25894H65.5678C65.6981 4.95909 65.9021 4.71823 66.1798 4.53635C66.46 4.35448 66.8127 4.26354 67.2379 4.26354C67.6238 4.26354 67.9617 4.34464 68.2517 4.50686C68.5417 4.66661 68.7666 4.90502 68.9264 5.22207C69.0861 5.53913 69.166 5.93114 69.166 6.39812V10H68.0637V6.53084C68.0637 6.12039 67.9568 5.79965 67.743 5.56862C67.5291 5.33513 67.2354 5.21839 66.8618 5.21839C66.6062 5.21839 66.3789 5.27369 66.1798 5.38429C65.9832 5.49489 65.8271 5.6571 65.7116 5.87093C65.5985 6.0823 65.542 6.33791 65.542 6.63775ZM73.2877 4.33727V5.22207H70.1946V4.33727H73.2877ZM71.0241 2.98058H72.1264V8.33731C72.1264 8.55114 72.1584 8.71212 72.2223 8.82026C72.2862 8.92595 72.3685 8.99845 72.4693 9.03778C72.5725 9.07465 72.6843 9.09308 72.8048 9.09308C72.8932 9.09308 72.9707 9.08693 73.037 9.07465C73.1034 9.06236 73.155 9.05253 73.1919 9.04515L73.3909 9.95576C73.327 9.98034 73.2361 10.0049 73.1181 10.0295C73.0002 10.0565 72.8527 10.0713 72.6757 10.0737C72.3857 10.0786 72.1154 10.027 71.8647 9.91889C71.614 9.81075 71.4112 9.64362 71.2564 9.41751C71.1015 9.19139 71.0241 8.90752 71.0241 8.56588V2.98058ZM78.0942 7.65159V4.33727H79.2002V10H78.1163V9.01935H78.0573C77.9271 9.32165 77.7182 9.57357 77.4306 9.77511C77.1455 9.97419 76.7904 10.0737 76.3652 10.0737C76.0014 10.0737 75.6794 9.99386 75.3993 9.8341C75.1215 9.67189 74.9028 9.43225 74.743 9.1152C74.5857 8.79814 74.5071 8.40613 74.5071 7.93915V4.33727H75.6094V7.80643C75.6094 8.1923 75.7163 8.49952 75.9301 8.7281C76.144 8.95667 76.4217 9.07096 76.7633 9.07096C76.9698 9.07096 77.175 9.01935 77.379 8.91612C77.5855 8.81289 77.7563 8.65682 77.8914 8.44791C78.0291 8.239 78.0967 7.97356 78.0942 7.65159ZM80.6813 10V4.33727H81.7468V5.23682H81.8058C81.909 4.93205 82.0909 4.69242 82.3514 4.51792C82.6144 4.34096 82.9118 4.25248 83.2436 4.25248C83.3124 4.25248 83.3935 4.25494 83.4869 4.25985C83.5827 4.26477 83.6577 4.27091 83.7118 4.27828V5.33267C83.6675 5.32038 83.5889 5.30687 83.4758 5.29212C83.3628 5.27491 83.2497 5.26631 83.1367 5.26631C82.8761 5.26631 82.6439 5.32161 82.4399 5.43221C82.2383 5.54036 82.0786 5.69151 81.9606 5.88567C81.8426 6.07738 81.7837 6.29612 81.7837 6.5419V10H80.6813ZM86.9035 10.1143C86.3456 10.1143 85.8651 9.99508 85.462 9.75668C85.0614 9.51582 84.7517 9.17787 84.533 8.74284C84.3167 8.30536 84.2086 7.79291 84.2086 7.2055C84.2086 6.62547 84.3167 6.11425 84.533 5.67185C84.7517 5.22945 85.0565 4.88413 85.4473 4.63589C85.8405 4.38766 86.3001 4.26354 86.8261 4.26354C87.1456 4.26354 87.4553 4.31638 87.7551 4.42206C88.055 4.52775 88.3241 4.69365 88.5625 4.91977C88.8009 5.14588 88.9889 5.43959 89.1266 5.80088C89.2642 6.15972 89.333 6.59597 89.333 7.10965V7.50044H84.8316V6.67462H88.2528C88.2528 6.3846 88.1939 6.12777 88.0759 5.90411C87.9579 5.67799 87.792 5.4998 87.5782 5.36954C87.3668 5.23928 87.1186 5.17415 86.8335 5.17415C86.5238 5.17415 86.2534 5.25034 86.0224 5.40272C85.7938 5.55264 85.6169 5.74927 85.4915 5.99259C85.3686 6.23345 85.3072 6.4952 85.3072 6.77785V7.42302C85.3072 7.80151 85.3735 8.12348 85.5063 8.38892C85.6414 8.65436 85.8295 8.85713 86.0703 8.99723C86.3112 9.13486 86.5926 9.20368 86.9146 9.20368C87.1235 9.20368 87.314 9.17419 87.486 9.1152C87.6581 9.05375 87.8068 8.96282 87.9321 8.84238C88.0574 8.72195 88.1533 8.57326 88.2197 8.3963L89.263 8.58432C89.1794 8.89154 89.0295 9.16067 88.8132 9.3917C88.5994 9.62027 88.3303 9.79846 88.0058 9.92627C87.6839 10.0516 87.3164 10.1143 86.9035 10.1143ZM102.411 4.90502H101.26C101.216 4.65924 101.134 4.44296 101.013 4.25616C100.893 4.06937 100.745 3.91085 100.571 3.78058C100.396 3.65032 100.201 3.55201 99.9848 3.48565C99.7709 3.41929 99.5436 3.38611 99.3027 3.38611C98.8677 3.38611 98.4781 3.49548 98.134 3.71422C97.7924 3.93297 97.5221 4.25371 97.323 4.67644C97.1264 5.09918 97.028 5.61532 97.028 6.22485C97.028 6.83929 97.1264 7.35788 97.323 7.78062C97.5221 8.20336 97.7936 8.52287 98.1377 8.73916C98.4818 8.95544 98.8689 9.06359 99.299 9.06359C99.5374 9.06359 99.7636 9.03163 99.9774 8.96773C100.194 8.90137 100.389 8.80429 100.564 8.67648C100.738 8.54868 100.886 8.39261 101.006 8.20828C101.129 8.02149 101.214 7.80766 101.26 7.5668L102.411 7.57048C102.349 7.94161 102.23 8.28324 102.053 8.59538C101.878 8.90506 101.654 9.17296 101.378 9.39907C101.105 9.62273 100.793 9.796 100.442 9.91889C100.09 10.0418 99.707 10.1032 99.2917 10.1032C98.6379 10.1032 98.0554 9.94839 97.5442 9.63871C97.033 9.32657 96.6299 8.88048 96.3349 8.30044C96.0425 7.72041 95.8962 7.02854 95.8962 6.22485C95.8962 5.4187 96.0437 4.72683 96.3386 4.14925C96.6336 3.56921 97.0366 3.12436 97.5479 2.81468C98.0591 2.50254 98.6403 2.34647 99.2917 2.34647C99.6923 2.34647 100.066 2.40423 100.412 2.51974C100.761 2.6328 101.075 2.79993 101.353 3.02113C101.63 3.23987 101.86 3.50777 102.042 3.82482C102.224 4.13942 102.347 4.49948 102.411 4.90502ZM105.333 10.1253C104.974 10.1253 104.65 10.059 104.36 9.92627C104.07 9.79109 103.84 9.59569 103.671 9.34009C103.503 9.08448 103.42 8.77111 103.42 8.39998C103.42 8.08047 103.481 7.81749 103.604 7.61104C103.727 7.40458 103.893 7.24114 104.102 7.12071C104.311 7.00028 104.544 6.90934 104.802 6.8479C105.06 6.78645 105.323 6.73975 105.591 6.7078C105.93 6.66848 106.206 6.63653 106.417 6.61195C106.628 6.58491 106.782 6.5419 106.878 6.48291C106.974 6.42393 107.022 6.32807 107.022 6.19535V6.16955C107.022 5.84758 106.931 5.59811 106.749 5.42115C106.569 5.24419 106.302 5.15571 105.945 5.15571C105.574 5.15571 105.282 5.23805 105.068 5.40272C104.856 5.56493 104.71 5.74558 104.629 5.94466L103.593 5.70871C103.716 5.36462 103.895 5.08689 104.131 4.87553C104.37 4.6617 104.644 4.50686 104.953 4.411C105.263 4.31269 105.589 4.26354 105.93 4.26354C106.157 4.26354 106.396 4.29057 106.649 4.34464C106.905 4.39626 107.143 4.49211 107.365 4.6322C107.588 4.7723 107.771 4.97261 107.914 5.23313C108.056 5.4912 108.128 5.82669 108.128 6.23959V10H107.051V9.2258H107.007C106.936 9.36835 106.829 9.50844 106.686 9.64608C106.544 9.78372 106.361 9.898 106.137 9.98894C105.913 10.0799 105.645 10.1253 105.333 10.1253ZM105.573 9.24055C105.878 9.24055 106.138 9.18033 106.354 9.0599C106.573 8.93947 106.739 8.78217 106.852 8.588C106.968 8.39138 107.025 8.18124 107.025 7.95758V7.22762C106.986 7.26695 106.91 7.30381 106.797 7.33822C106.686 7.37017 106.56 7.39844 106.417 7.42302C106.275 7.44514 106.136 7.46603 106 7.48569C105.865 7.50289 105.752 7.51764 105.661 7.52993C105.447 7.55697 105.252 7.60243 105.075 7.66634C104.901 7.73024 104.761 7.82241 104.655 7.94284C104.552 8.06081 104.5 8.21811 104.5 8.41473C104.5 8.68754 104.601 8.894 104.802 9.03409C105.004 9.17173 105.261 9.24055 105.573 9.24055ZM109.596 12.1235V4.33727H110.672V5.25525H110.765C110.828 5.13728 110.921 5.00087 111.041 4.84603C111.162 4.69119 111.329 4.55601 111.542 4.4405C111.756 4.32252 112.039 4.26354 112.39 4.26354C112.848 4.26354 113.256 4.37905 113.614 4.61009C113.973 4.84112 114.255 5.17415 114.459 5.60917C114.665 6.0442 114.768 6.56771 114.768 7.1797C114.768 7.79168 114.666 8.31642 114.462 8.7539C114.258 9.18893 113.978 9.52442 113.622 9.76037C113.265 9.99386 112.859 10.1106 112.401 10.1106C112.057 10.1106 111.776 10.0528 111.557 9.93733C111.341 9.82181 111.171 9.68663 111.048 9.53179C110.926 9.37695 110.831 9.23932 110.765 9.11889H110.698V12.1235H109.596ZM110.676 7.16864C110.676 7.5668 110.734 7.9158 110.849 8.21565C110.965 8.5155 111.132 8.75022 111.351 8.91981C111.57 9.08693 111.837 9.1705 112.154 9.1705C112.484 9.1705 112.759 9.08325 112.98 8.90874C113.201 8.73178 113.369 8.49215 113.482 8.18984C113.597 7.88754 113.655 7.54713 113.655 7.16864C113.655 6.79505 113.598 6.45957 113.485 6.16217C113.375 5.86478 113.208 5.63006 112.984 5.45802C112.763 5.28597 112.486 5.19995 112.154 5.19995C111.835 5.19995 111.565 5.28229 111.343 5.44696C111.125 5.61163 110.959 5.84143 110.846 6.13637C110.733 6.4313 110.676 6.77539 110.676 7.16864ZM116.003 10V4.33727H117.106V10H116.003ZM116.56 3.46353C116.368 3.46353 116.204 3.39963 116.066 3.27182C115.931 3.14156 115.863 2.98672 115.863 2.8073C115.863 2.62543 115.931 2.47059 116.066 2.34278C116.204 2.21252 116.368 2.14739 116.56 2.14739C116.752 2.14739 116.915 2.21252 117.05 2.34278C117.188 2.47059 117.257 2.62543 117.257 2.8073C117.257 2.98672 117.188 3.14156 117.05 3.27182C116.915 3.39963 116.752 3.46353 116.56 3.46353ZM121.232 4.33727V5.22207H118.139V4.33727H121.232ZM118.968 2.98058H120.071V8.33731C120.071 8.55114 120.103 8.71212 120.167 8.82026C120.23 8.92595 120.313 8.99845 120.414 9.03778C120.517 9.07465 120.629 9.09308 120.749 9.09308C120.837 9.09308 120.915 9.08693 120.981 9.07465C121.048 9.06236 121.099 9.05253 121.136 9.04515L121.335 9.95576C121.271 9.98034 121.18 10.0049 121.062 10.0295C120.944 10.0565 120.797 10.0713 120.62 10.0737C120.33 10.0786 120.06 10.027 119.809 9.91889C119.558 9.81075 119.355 9.64362 119.201 9.41751C119.046 9.19139 118.968 8.90752 118.968 8.56588V2.98058ZM124.099 10.1253C123.74 10.1253 123.416 10.059 123.126 9.92627C122.836 9.79109 122.606 9.59569 122.437 9.34009C122.269 9.08448 122.186 8.77111 122.186 8.39998C122.186 8.08047 122.247 7.81749 122.37 7.61104C122.493 7.40458 122.659 7.24114 122.868 7.12071C123.077 7.00028 123.31 6.90934 123.568 6.8479C123.826 6.78645 124.089 6.73975 124.357 6.7078C124.697 6.66848 124.972 6.63653 125.183 6.61195C125.395 6.58491 125.548 6.5419 125.644 6.48291C125.74 6.42393 125.788 6.32807 125.788 6.19535V6.16955C125.788 5.84758 125.697 5.59811 125.515 5.42115C125.336 5.24419 125.068 5.15571 124.711 5.15571C124.34 5.15571 124.048 5.23805 123.834 5.40272C123.622 5.56493 123.476 5.74558 123.395 5.94466L122.359 5.70871C122.482 5.36462 122.661 5.08689 122.897 4.87553C123.136 4.6617 123.41 4.50686 123.72 4.411C124.029 4.31269 124.355 4.26354 124.697 4.26354C124.923 4.26354 125.162 4.29057 125.415 4.34464C125.671 4.39626 125.909 4.49211 126.131 4.6322C126.354 4.7723 126.537 4.97261 126.68 5.23313C126.822 5.4912 126.894 5.82669 126.894 6.23959V10H125.817V9.2258H125.773C125.702 9.36835 125.595 9.50844 125.452 9.64608C125.31 9.78372 125.127 9.898 124.903 9.98894C124.679 10.0799 124.411 10.1253 124.099 10.1253ZM124.339 9.24055C124.644 9.24055 124.904 9.18033 125.12 9.0599C125.339 8.93947 125.505 8.78217 125.618 8.588C125.734 8.39138 125.791 8.18124 125.791 7.95758V7.22762C125.752 7.26695 125.676 7.30381 125.563 7.33822C125.452 7.37017 125.326 7.39844 125.183 7.42302C125.041 7.44514 124.902 7.46603 124.767 7.48569C124.631 7.50289 124.518 7.51764 124.427 7.52993C124.214 7.55697 124.018 7.60243 123.841 7.66634C123.667 7.73024 123.527 7.82241 123.421 7.94284C123.318 8.06081 123.266 8.21811 123.266 8.41473C123.266 8.68754 123.367 8.894 123.568 9.03409C123.77 9.17173 124.027 9.24055 124.339 9.24055ZM129.464 2.4497V10H128.362V2.4497H129.464Z" fill="#828282"/>
<path d="M40.1527 19.4717C40.0953 18.8929 39.8489 18.4432 39.4136 18.1228C38.9784 17.8023 38.3876 17.642 37.6414 17.642C37.1344 17.642 36.7063 17.7138 36.3571 17.8573C36.0079 17.996 35.74 18.1897 35.5535 18.4385C35.3717 18.6872 35.2808 18.9694 35.2808 19.2851C35.2713 19.5482 35.3263 19.7778 35.4459 19.9739C35.5702 20.17 35.74 20.3398 35.9553 20.4833C36.1705 20.6221 36.4193 20.744 36.7015 20.8493C36.9837 20.9497 37.2851 21.0358 37.6055 21.1076L38.9257 21.4233C39.5667 21.5668 40.1551 21.7581 40.6908 21.9973C41.2265 22.2364 41.6905 22.5306 42.0828 22.8798C42.475 23.229 42.7787 23.6403 42.994 24.1139C43.214 24.5874 43.3264 25.1304 43.3312 25.7426C43.3264 26.6419 43.0968 27.4216 42.6424 28.0817C42.1928 28.737 41.5422 29.2464 40.6908 29.61C39.8441 29.9687 38.8229 30.1481 37.6271 30.1481C36.4408 30.1481 35.4076 29.9663 34.5275 29.6028C33.6521 29.2392 32.9681 28.7011 32.4754 27.9884C31.9875 27.2709 31.7316 26.3836 31.7077 25.3265H34.714C34.7475 25.8192 34.8886 26.2305 35.1373 26.5606C35.3909 26.8858 35.7281 27.1322 36.149 27.2996C36.5747 27.4622 37.0555 27.5435 37.5912 27.5435C38.1174 27.5435 38.5742 27.467 38.9616 27.3139C39.3539 27.1609 39.6576 26.948 39.8728 26.6754C40.0881 26.4027 40.1957 26.0894 40.1957 25.7354C40.1957 25.4054 40.0977 25.128 39.9015 24.9031C39.7102 24.6783 39.428 24.487 39.0549 24.3291C38.6866 24.1713 38.2346 24.0278 37.6988 23.8986L36.0988 23.4968C34.8599 23.1955 33.8817 22.7243 33.1642 22.0834C32.4467 21.4424 32.0904 20.579 32.0951 19.4932C32.0904 18.6035 32.3271 17.8262 32.8055 17.1613C33.2886 16.4964 33.9511 15.9774 34.7929 15.6043C35.6348 15.2312 36.5915 15.0447 37.6629 15.0447C38.7535 15.0447 39.7054 15.2312 40.5186 15.6043C41.3366 15.9774 41.9727 16.4964 42.4272 17.1613C42.8816 17.8262 43.116 18.5963 43.1303 19.4717H40.1527ZM58.3862 20.3901H55.2435C55.1861 19.9835 55.0689 19.6223 54.8919 19.3066C54.715 18.9861 54.4878 18.7135 54.2103 18.4887C53.9329 18.2639 53.6124 18.0917 53.2489 17.9721C52.8901 17.8525 52.5003 17.7927 52.0793 17.7927C51.3188 17.7927 50.6563 17.9816 50.0919 18.3595C49.5274 18.7326 49.0897 19.2779 48.7788 19.9954C48.4679 20.7082 48.3125 21.5739 48.3125 22.5928C48.3125 23.6403 48.4679 24.5205 48.7788 25.2332C49.0945 25.9459 49.5346 26.484 50.099 26.8476C50.6635 27.2111 51.3164 27.3929 52.0578 27.3929C52.474 27.3929 52.859 27.3379 53.213 27.2278C53.5717 27.1178 53.8898 26.9576 54.1673 26.7471C54.4447 26.5319 54.6743 26.2712 54.8561 25.965C55.0426 25.6589 55.1718 25.3097 55.2435 24.9175L58.3862 24.9318C58.3049 25.6063 58.1016 26.2568 57.7763 26.8834C57.4558 27.5053 57.0229 28.0625 56.4776 28.5552C55.9371 29.0431 55.2914 29.4306 54.5404 29.7176C53.7942 29.9998 52.9499 30.1409 52.0076 30.1409C50.697 30.1409 49.525 29.8443 48.4918 29.2512C47.4634 28.6581 46.6502 27.7995 46.0523 26.6754C45.4592 25.5513 45.1626 24.1904 45.1626 22.5928C45.1626 20.9904 45.464 19.6271 46.0667 18.503C46.6694 17.3789 47.4873 16.5227 48.5205 15.9344C49.5537 15.3412 50.7161 15.0447 52.0076 15.0447C52.859 15.0447 53.6483 15.1643 54.3753 15.4034C55.1072 15.6426 55.7553 15.9918 56.3198 16.451C56.8842 16.9054 57.3434 17.4627 57.6974 18.1228C58.0561 18.7829 58.2857 19.5386 58.3862 20.3901ZM60.614 29.94V15.2456H63.7208V21.3085H70.0276V15.2456H73.1272V29.94H70.0276V23.8699H63.7208V29.94H60.614ZM89.1921 22.5928C89.1921 24.1952 88.8883 25.5585 88.2809 26.6825C87.6782 27.8066 86.8554 28.6652 85.8127 29.2584C84.7747 29.8467 83.6075 30.1409 82.3113 30.1409C81.0054 30.1409 79.8335 29.8443 78.7955 29.2512C77.7575 28.6581 76.9372 27.7995 76.3345 26.6754C75.7318 25.5513 75.4304 24.1904 75.4304 22.5928C75.4304 20.9904 75.7318 19.6271 76.3345 18.503C76.9372 17.3789 77.7575 16.5227 78.7955 15.9344C79.8335 15.3412 81.0054 15.0447 82.3113 15.0447C83.6075 15.0447 84.7747 15.3412 85.8127 15.9344C86.8554 16.5227 87.6782 17.3789 88.2809 18.503C88.8883 19.6271 89.1921 20.9904 89.1921 22.5928ZM86.0423 22.5928C86.0423 21.5548 85.8868 20.6795 85.5759 19.9667C85.2697 19.254 84.8369 18.7135 84.2772 18.3452C83.7176 17.9769 83.0622 17.7927 82.3113 17.7927C81.5603 17.7927 80.905 17.9769 80.3453 18.3452C79.7856 18.7135 79.3504 19.254 79.0394 19.9667C78.7333 20.6795 78.5802 21.5548 78.5802 22.5928C78.5802 23.6308 78.7333 24.5061 79.0394 25.2188C79.3504 25.9316 79.7856 26.4721 80.3453 26.8404C80.905 27.2087 81.5603 27.3929 82.3113 27.3929C83.0622 27.3929 83.7176 27.2087 84.2772 26.8404C84.8369 26.4721 85.2697 25.9316 85.5759 25.2188C85.8868 24.5061 86.0423 23.6308 86.0423 22.5928ZM91.4935 29.94V15.2456H94.6003V27.3785H100.9V29.94H91.4935ZM105.865 29.94H102.536L107.609 15.2456H111.612L116.678 29.94H113.349L109.668 18.6035H109.553L105.865 29.94ZM105.657 24.1641H113.521V26.5893H105.657V24.1641ZM118.446 29.94V15.2456H124.244C125.354 15.2456 126.301 15.4441 127.085 15.8411C127.874 16.2333 128.475 16.7906 128.886 17.5129C129.302 18.2304 129.51 19.0746 129.51 20.0457C129.51 21.0215 129.3 21.8609 128.879 22.5641C128.458 23.2625 127.848 23.7982 127.049 24.1713C126.255 24.5444 125.294 24.7309 124.165 24.7309H120.283V22.234H123.663C124.256 22.234 124.748 22.1527 125.141 21.9901C125.533 21.8275 125.825 21.5835 126.016 21.2582C126.212 20.933 126.31 20.5288 126.31 20.0457C126.31 19.5578 126.212 19.1464 126.016 18.8116C125.825 18.4767 125.531 18.2232 125.134 18.051C124.741 17.874 124.246 17.7855 123.648 17.7855H121.553V29.94H118.446ZM126.382 23.2529L130.034 29.94H126.604L123.031 23.2529H126.382Z" fill="url(#paint0_linear_153_235)"/>
<defs>
<filter id="filter0_d_153_235" x="9.79248" y="5.34503" width="18.6112" height="14.9123" filterUnits="userSpaceOnUse" color-interpolation-filters="sRGB">
<feFlood flood-opacity="0" result="BackgroundImageFix"/>
<feColorMatrix in="SourceAlpha" type="matrix" values="0 0 0 0 0 0 0 0 0 0 0 0 0 0 0 0 0 0 127 0" result="hardAlpha"/>
<feOffset dx="0.147821" dy="0.147821"/>
<feGaussianBlur stdDeviation="0.369552"/>
<feComposite in2="hardAlpha" operator="out"/>
<feColorMatrix type="matrix" values="0 0 0 0 0 0 0 0 0 0 0 0 0 0 0 0 0 0 0.35 0"/>
<feBlend mode="normal" in2="BackgroundImageFix" result="effect1_dropShadow_153_235"/>
<feBlend mode="normal" in="SourceGraphic" in2="effect1_dropShadow_153_235" result="shape"/>
</filter>
<linearGradient id="paint0_linear_153_235" x1="30.9041" y1="23.6115" x2="130.904" y2="23.6115" gradientUnits="userSpaceOnUse">
<stop offset="0.248339" stop-color="#6141DB"/>
<stop offset="1" stop-color="#27C13F"/>
</linearGradient>
</defs>
</svg>
